<?xml version="1.0" encoding="UTF-8"?>
<svg width="272px" height="55px" viewBox="0 0 272 55" version="1.1" xmlns="http://www.w3.org/2000/svg" xmlns:xlink="http://www.w3.org/1999/xlink">
    <!-- Generator: Sketch 60.1 (88133) - https://sketch.com -->
    <title>Logo/Black</title>
    <desc>Created with Sketch.</desc>
    <g id="wip_8---Connexion" stroke="none" stroke-width="1" fill="none" fill-rule="evenodd">
        <g id="1" transform="translate(-584.000000, -39.000000)">
            <g id="Logo/Black" transform="translate(585.000000, 40.000000)">
                <g id="araymond-automotive-vector-logo">
                    <path d="M251.307229,22.7000775 C257.554591,22.7000775 262.624914,17.6152601 262.624914,11.3500387 C262.624914,5.08481736 257.554591,0 251.307229,0 C245.059868,0 239.989545,5.08481736 239.989545,11.3500387 C239.989545,11.3500387 239.989545,11.3500387 239.989545,11.3500387 C239.989545,17.6152601 245.059868,22.7000775 251.307229,22.7000775 Z M244.833514,11.3046386 C244.290265,10.7144366 244.018641,9.89723379 244.018641,9.080031 C244.018641,8.53522914 244.154453,7.99042728 244.426077,7.49102557 C244.697702,6.99162387 245.059868,6.58302247 245.512575,6.26522139 C245.874741,6.03822061 246.236907,5.85661999 246.644343,5.76581968 C247.187592,5.67501937 247.68557,5.62961922 248.228819,5.62961922 L251.443041,5.62961922 L251.443041,7.67262619 C251.578854,7.44562542 251.759937,7.17322449 251.94102,6.94622371 C252.348456,6.44682201 252.846434,6.03822061 253.389683,5.76581968 C253.978203,5.49341875 254.566722,5.35721829 255.200513,5.40261844 C256.015386,5.40261844 256.830259,5.67501937 257.50932,6.17442108 C258.233652,6.76462309 258.776901,7.49102557 259.093796,8.35362852 L259.093796,8.53522914 L257.780945,8.53522914 L257.780945,8.53522914 C257.46405,7.99042728 257.011342,7.53642573 256.513364,7.17322449 C256.060657,6.90082356 255.562679,6.71922294 255.01943,6.71922294 C254.068744,6.71922294 253.163329,7.21862464 252.620081,7.99042728 C251.94102,8.85303022 251.578854,9.94263394 251.624124,11.0776378 C251.578854,12.2126417 251.94102,13.3476456 252.620081,14.3010488 C253.163329,15.0728515 254.068744,15.5722532 255.01943,15.5722532 C255.789032,15.5722532 256.513364,15.2544521 257.056613,14.6642501 C257.645132,14.0286479 258.052569,13.2568453 258.188381,12.4396425 L254.974159,12.4396425 L254.974159,11.2592384 L259.455962,11.2592384 L259.455962,11.3954389 C259.455962,12.8028437 258.957984,14.1648484 258.09784,15.2998522 C256.784988,17.0250581 254.340369,17.3882594 252.57481,16.0716549 C252.257915,15.7992539 251.94102,15.526853 251.714666,15.1636518 C251.578854,14.9820511 251.443041,14.7550504 251.307229,14.5734497 L251.307229,16.4348561 L249.994378,16.4348561 L249.994378,6.81002325 L248.545714,6.81002325 C248.002465,6.81002325 247.459217,6.81002325 246.961238,6.90082356 C246.689614,6.99162387 246.41799,7.08242418 246.191636,7.2640248 C245.965282,7.49102557 245.738929,7.71802635 245.603116,8.03582743 C245.467304,8.35362852 245.422033,8.6714296 245.422033,9.03463084 C245.422033,9.5794327 245.648387,10.1242346 246.055824,10.4420356 C246.508531,10.8052369 247.05178,11.0322377 247.6403,10.9868375 L248.953151,10.9868375 L248.817339,11.1684381 L245.603116,16.3440558 L245.603116,16.3440558 L244.018641,16.3440558 L244.154453,16.1624552 L246.780156,12.1672415 C246.010553,12.1672415 245.331492,11.8494404 244.833514,11.3046386 L244.833514,11.3046386 Z M271,11.1684381 L267.33307,11.1684381 L267.33307,11.1684381 C267.33307,20.0214683 260.180294,27.1946928 251.3525,27.1946928 C242.524706,27.1946928 235.37193,20.0214683 235.37193,11.1684381 L235.37193,11.1684381 L231.705,11.1684381 L231.705,11.1684381 C231.705,22.0644753 240.532794,30.9175055 251.397771,30.9175055 C262.262748,30.9175055 271,22.1098755 271,11.1684381 L271,11.1684381 Z" id="Shape" fill="#0068B3" fill-rule="nonzero"></path>
                    <path d="M23.8931667,0 L0,33.1908515 L4.11016667,33.1908515 L13.2338333,20.48818 L26.9193333,20.48818 L26.9193333,33.1908515 L30.2616667,33.1908515 L30.2616667,0 L23.8931667,0 Z M26.9193333,17.1190126 L15.6728333,17.1190126 L25.5643333,3.41469666 L26.9645,3.41469666 L26.9193333,17.1190126 Z" id="Shape" stroke="#1D1D1B" stroke-width="0.2116" fill="#1D1D1B" fill-rule="nonzero"></path>
                    <path d="M38.0193731,3.28885753 L38.0193731,33.1908515 L34.7783333,33.1908515 L34.7783333,0.00693136052 L43.6797806,0.00693136052 C45.2774763,-0.0386509474 46.8751719,0.143678284 48.4272191,0.46275444 C51.2574229,1.14648906 53.6311421,3.01536368 54.8636502,5.65913754 C55.6396738,7.16335371 56.0048614,8.8498991 56.0048614,10.5820268 C56.0505099,12.9978891 55.2288378,15.3225868 53.722439,17.1914615 C52.3073372,18.9691715 50.253157,20.0631469 47.9707347,20.1998938 L56.0048614,33.1452692 L52.0334465,33.1452692 L42.2646787,17.1458791 L45.5057185,17.1458791 C47.3773048,17.2370438 49.2488912,16.5533091 50.6183446,15.2770045 C51.9421496,14.0462822 52.6725247,12.3141545 52.5812279,10.5364445 C52.5812279,9.4424691 52.3986341,8.34849371 51.987798,7.30010063 C51.576962,6.34287216 50.9835322,5.47680831 50.2075086,4.79307369 C49.5227819,4.20050369 48.7011098,3.74468061 47.8337893,3.51676907 C46.2360937,3.19769292 44.5471011,3.06094599 42.903757,3.15211061 L38.0193731,3.28885753 Z" id="Path" stroke="#1D1D1B" stroke-width="0.3878" fill="#1D1D1B" fill-rule="nonzero"></path>
                    <path d="M79.4208859,29.4733487 C78.3877661,30.937916 77.0402185,32.127877 75.4231615,32.8601607 C73.7162679,33.6839798 71.8746196,34.0958894 69.988053,34.0958894 C66.5742658,34.1874248 63.2952335,32.8143929 60.9594844,30.2971678 C58.578817,27.8257104 57.2761877,24.4388984 57.3660242,20.9605509 C57.2761877,17.4364357 58.6237353,14.0038559 61.0493209,11.5323985 C63.4749065,9.01517338 66.8437753,7.64214148 70.3024807,7.73367694 C72.0992108,7.73367694 73.8959409,8.09981878 75.512998,8.92363792 C77.0851368,9.70168932 78.4326843,10.8458826 79.4658041,12.3104499 L79.4658041,8.2828897 L82.655,8.2828897 L82.655,33.4551412 L79.4658041,33.4551412 L79.4658041,29.4733487 L79.4208859,29.4733487 Z M79.4208859,20.7317122 C79.4208859,18.1229516 78.4326843,15.5599588 76.591036,13.7292496 C74.9290607,11.8527726 72.5933116,10.7543471 70.1228077,10.7543471 C67.5624674,10.7085794 65.0919635,11.8070049 63.3401517,13.7292496 C61.4985034,15.6972619 60.4653836,18.397558 60.5552201,21.0978541 C60.5103018,23.7523824 61.4985034,26.3153753 63.3401517,28.1918522 C65.0919635,30.0683291 67.5175491,31.1209869 70.0329712,31.0752192 C72.5483933,31.0752192 74.9290607,29.9767937 76.5461177,28.054549 C78.4326843,26.0865366 79.4658041,23.4320083 79.4208859,20.7317122 L79.4208859,20.7317122 Z" id="Shape" stroke="#1D1D1B" stroke-width="0.3878" fill="#1D1D1B" fill-rule="nonzero"></path>
                    <polygon id="Path" stroke="#1D1D1B" stroke-width="0.3878" fill="#1D1D1B" fill-rule="nonzero" points="84.9133333 8.18404558 88.579021 8.18404558 96.2724394 28.545971 104.23739 8.18404558 107.948333 8.18404558 94.5979895 41.3748971 91.2038343 41.3748971 94.5074787 33.2027342"></polygon>
                    <path d="M129.718667,12.1575291 C130.667167,10.8034526 131.977,9.72019131 133.4675,8.95288127 C135.048333,8.18557122 136.764667,7.82448414 138.481,7.82448414 C141.281333,7.59880472 144.0365,8.72720184 145.843167,10.8485884 C147.378833,12.8797033 148.146667,16.129487 148.146667,20.5979396 L148.146667,33.1908515 L145.1205,33.1908515 L145.1205,19.9209013 C145.346333,17.4835635 144.804333,15.0462257 143.539667,12.9248392 C142.184667,11.4353549 140.2425,10.6680449 138.255167,10.8485884 C136.945333,10.8034526 135.680667,11.1194038 134.506333,11.7061703 C133.422333,12.2929368 132.564167,13.1505186 131.931833,14.1886439 C131.525333,14.8656822 131.254333,15.6329923 131.073667,16.4454382 C130.893,17.9800583 130.847833,19.4695425 130.893,21.0041626 L130.893,33.0554439 L127.821667,33.0554439 L127.821667,19.1987272 C128.002333,16.9419329 127.415167,14.6851387 126.105333,12.8345674 C124.750333,11.3902191 122.763,10.622909 120.775667,10.8034526 C119.465833,10.7583167 118.156,11.0742679 116.981667,11.6610344 C115.897667,12.2478009 114.994333,13.1053827 114.407167,14.143508 C114.000667,14.8656822 113.729667,15.6329923 113.594167,16.4003023 C113.4135,17.9349224 113.368333,19.4244066 113.4135,20.9590267 L113.4135,33.010308 L110.206667,33.010308 L110.206667,8.23070711 L113.4135,8.23070711 L113.4135,11.029132 C114.316833,9.94587074 115.446,9.08828892 116.755833,8.5466583 C118.156,7.9598918 119.601333,7.68907649 121.137,7.73421237 C122.8985,7.73421237 124.614833,8.14043534 126.1505,8.90774538 C127.595833,9.67505543 128.8605,10.7583167 129.718667,12.1575291 Z" id="Path" stroke="#1D1D1B" stroke-width="0.3878" fill="#1D1D1B" fill-rule="nonzero"></path>
                    <path d="M150.857764,20.7098536 C150.812448,17.1791155 152.171936,13.7400848 154.664331,11.218129 C156.930145,8.69617319 160.192917,7.27470719 163.546321,7.27470719 C170.706293,7.27470719 176.552092,13.1439862 176.597409,20.3888775 C176.688041,24.0113231 175.328553,27.4962075 172.836158,30.1098708 C170.525028,32.6776804 167.21694,34.1450001 163.772903,34.0991464 C160.28355,34.1450001 156.975461,32.6776804 154.619015,30.1098708 C152.171936,27.6337687 150.812448,24.2405918 150.857764,20.7098536 Z M154.211169,20.7098536 C154.120536,23.4152244 155.117494,26.0288877 156.930145,28.0005987 C158.69748,29.9264558 161.144559,30.9810919 163.772903,30.9352382 C166.310614,30.9810919 168.803009,29.9264558 170.479711,28.0005987 C172.292362,26.0288877 173.28932,23.3693707 173.198688,20.6639999 C173.28932,17.9586291 172.292362,15.2991121 170.434395,13.3274012 C168.621744,11.401544 166.084033,10.3469079 163.455689,10.4386154 C160.963294,10.4386154 158.561531,11.4932515 156.930145,13.4191086 C155.117494,15.3908196 154.165852,18.0044829 154.211169,20.7098536 L154.211169,20.7098536 Z" id="Shape" stroke="#1D1D1B" stroke-width="0.3878" fill="#1D1D1B" fill-rule="nonzero"></path>
                    <path d="M178.86,8.22027713 L181.936754,8.22027713 L181.936754,11.0351419 C182.841682,9.94551681 184.018088,9.08289697 185.330234,8.53808444 C188.316495,7.40305833 191.664728,7.44845937 194.65099,8.76508966 C196.008381,9.40070428 197.184787,10.3995273 198.044469,11.6253555 C198.632672,12.6241784 199.085136,13.7138035 199.266121,14.8488296 C199.5376,16.6194703 199.673339,18.3901111 199.628092,20.1607518 L199.628092,33.1908515 L196.415599,33.1908515 L196.415599,19.2073299 C196.596584,16.9372776 196.008381,14.6672254 194.741482,12.8057826 C193.338844,11.3529492 191.348003,10.6265325 189.357162,10.8081367 C188.045017,10.7627356 186.732872,11.0805429 185.556466,11.6707565 C184.470552,12.2609701 183.565624,13.1235899 182.977421,14.1678139 C182.570204,14.8942307 182.298726,15.6660484 182.162986,16.4832672 C181.982001,17.9815017 181.891508,19.5251372 181.936754,21.0233716 L181.936754,33.1454505 L178.86,33.1454505 L178.86,8.22027713 Z" id="Path" stroke="#1D1D1B" stroke-width="0.3878" fill="#1D1D1B" fill-rule="nonzero"></path>
                    <path d="M224.439436,12.0158652 L224.439436,0 L227.64,0 L227.64,33.0096222 L224.439436,33.0096222 L224.439436,29.2461625 C223.312477,30.6064491 221.915048,31.6946784 220.292227,32.4655075 C218.669406,33.2363366 216.866272,33.6444226 215.063137,33.6444226 C211.637182,33.6897655 208.39154,32.3294788 206.047465,29.83562 C203.613234,27.3871041 202.305961,24.0317304 202.35104,20.5403281 C202.260883,17.0942686 203.568155,13.7842378 205.957309,11.3357219 C208.346462,8.84186308 211.637182,7.48157645 215.063137,7.57226223 C216.91135,7.57226223 218.714485,7.93500533 220.382384,8.70583442 C222.005205,9.43132062 223.402634,10.6102357 224.439436,12.0158652 Z M224.574671,20.7670425 C224.61975,18.0464693 223.628026,15.4619247 221.779813,13.5121805 C220.111914,11.6077792 217.722761,10.5195499 215.198372,10.5195499 C212.673984,10.474207 210.239753,11.5170934 208.481697,13.3761518 C206.633484,15.2352102 205.64176,17.7744119 205.686838,20.4042994 C205.596682,23.1248727 206.633484,25.7547601 208.481697,27.7498472 C210.239753,29.6542485 212.673984,30.7424778 215.288529,30.6971349 C217.767839,30.6971349 220.111914,29.6089056 221.779813,27.7045043 C223.628026,25.8907888 224.664828,23.39693 224.664828,20.8123854 L224.574671,20.7670425 Z" id="Shape" stroke="#1D1D1B" stroke-width="0.3878" fill="#1D1D1B" fill-rule="nonzero"></path>
                    <polygon id="Path" fill="#0068B3" fill-rule="nonzero" points="116.506838 52.6968006 115.626667 48.6624119 114.005299 52.7416271 113.72735 52.7416271 112.105983 48.6624119 111.225812 52.6968006 110.206667 52.6968006 111.59641 46.3762583 112.059658 46.3762583 113.82 50.9485655 115.441368 46.3762583 115.904615 46.3762583 117.433333 52.6968006"></polygon>
                    <path d="M118.336667,49.5589427 C118.336667,49.1169032 118.425337,48.7190677 118.602679,48.3212321 C118.824356,47.9233966 119.090368,47.569765 119.445051,47.2603373 C119.799734,46.9951136 120.198753,46.7740939 120.597771,46.5972781 C121.041125,46.4646662 121.484479,46.3762583 121.972168,46.3762583 C122.459857,46.3762583 122.903211,46.4204623 123.346564,46.5972781 C123.789918,46.7298899 124.188937,46.9951136 124.499284,47.2603373 C124.853967,47.525561 125.11998,47.8791926 125.297321,48.2770282 C125.474663,48.6748637 125.563333,49.0726993 125.563333,49.5147388 C125.563333,49.9125743 125.474663,50.3546138 125.341656,50.7082454 C125.164315,51.061877 124.942638,51.4155086 124.63229,51.6807323 C124.277607,52.0343639 123.834254,52.2995876 123.3909,52.4764034 C122.903211,52.6532192 122.415521,52.7416271 121.927832,52.7416271 C121.440143,52.7416271 120.908119,52.6532192 120.464765,52.4764034 C120.021411,52.2995876 119.578057,52.0343639 119.223374,51.6807323 C118.913027,51.4155086 118.69135,51.061877 118.514008,50.7082454 C118.381002,50.3988178 118.336667,50.0009822 118.336667,49.5589427 Z M119.400716,49.5589427 C119.400716,49.8683704 119.445051,50.177798 119.578057,50.4430217 C119.711063,50.7082454 119.888405,50.9734691 120.110082,51.1944889 C120.376094,51.4155086 120.642106,51.5923244 120.952454,51.7249362 C121.262802,51.8575481 121.573149,51.901752 121.927832,51.901752 C122.592863,51.945956 123.257894,51.7249362 123.789918,51.3271007 C124.277607,50.8850612 124.54362,50.2662059 124.54362,49.6473506 C124.54362,49.3821269 124.499284,49.0726993 124.366278,48.8516795 C124.233272,48.5864558 124.05593,48.3654361 123.834254,48.1444163 C123.568241,47.9233966 123.302229,47.7023768 122.991881,47.569765 C122.681534,47.4371531 122.326851,47.3929492 121.972168,47.3929492 C121.66182,47.3929492 121.307137,47.4371531 120.996789,47.569765 C120.686442,47.6581729 120.420429,47.8349887 120.198753,48.0560084 C119.977076,48.2770282 119.755399,48.4980479 119.622393,48.8074756 C119.489387,49.0284953 119.400716,49.293719 119.400716,49.5589427 Z" id="Shape" fill="#0068B3" fill-rule="nonzero"></path>
                    <path d="M128.457181,53.1962963 L127.37,53.1962963 L127.37,46.8377892 L129.544361,46.8377892 C130.300661,46.7920446 131.009692,46.9750232 131.624185,47.3867251 C132.096872,47.7526823 132.380485,48.3473628 132.333216,48.8962987 C132.333216,49.3994899 132.144141,49.8569365 131.718723,50.177149 C131.293304,50.5431063 130.726079,50.7260849 130.158855,50.7260849 L132.285947,53.1505516 L130.962423,53.1505516 L128.409912,50.1314044 L128.409912,53.1962963 L128.457181,53.1962963 Z M128.457181,50.177149 L129.024405,50.177149 C129.59163,50.2228937 130.158855,50.0856597 130.678811,49.8569365 C131.009692,49.6739578 131.246035,49.3080006 131.246035,48.9420434 C131.293304,48.5760861 131.104229,48.2101289 130.773348,48.0271502 C130.300661,47.798427 129.780705,47.7069377 129.260749,47.7526823 L128.457181,47.7526823 L128.457181,50.177149 Z" id="Shape" fill="#0068B3" fill-rule="nonzero"></path>
                    <polygon id="Path" fill="#0068B3" fill-rule="nonzero" points="137.306667 53.1962963 133.693333 53.1962963 133.693333 46.8309275 137.306667 46.8309275 137.306667 47.6552199 134.694618 47.6552199 134.694618 49.5327747 137.306667 49.5327747 137.306667 50.3570671 134.694618 50.3570671 134.694618 52.2804159 137.306667 52.2804159"></polygon>
                    <polygon id="Path" fill="#0068B3" fill-rule="nonzero" points="145.937309 53.1962963 144.936024 53.1962963 144.936024 47.7010139 143.63 47.7010139 143.63 46.8309275 147.243333 46.8309275 147.243333 47.7010139 145.937309 47.7010139"></polygon>
                    <polygon id="Path" fill="#0068B3" fill-rule="nonzero" points="149.618616 53.1962963 148.598333 53.1962963 148.598333 46.8309275 149.618616 46.8309275 149.618616 49.5327747 152.546384 49.5327747 152.546384 46.8309275 153.566667 46.8309275 153.566667 53.1962963 152.546384 53.1962963 152.546384 50.4486551 149.618616 50.4486551"></polygon>
                    <path d="M156.831398,51.3645355 L156.012942,53.1962963 L154.921667,53.1962963 L157.786264,46.8309275 L158.832069,46.8309275 L161.696667,53.1962963 L160.559922,53.1962963 L159.741465,51.3645355 L156.831398,51.3645355 Z M159.286767,50.4944491 L158.240962,48.0673661 L157.195157,50.4944491 L159.286767,50.4944491 Z" id="Shape" fill="#0068B3" fill-rule="nonzero"></path>
                    <polygon id="Path" fill="#0068B3" fill-rule="nonzero" points="163.671812 53.1962963 162.6 53.1962963 162.6 46.8309275 163.718413 46.8309275 167.399854 51.6850936 167.399854 46.8309275 168.471667 46.8309275 168.471667 53.1962963 167.446455 53.1962963 163.671812 48.2505421"></polygon>
                    <polygon id="Path" fill="#0068B3" fill-rule="nonzero" points="174.343333 53.1962963 174.343333 46.8309275 177.956667 46.8309275 177.956667 47.6552199 175.395316 47.6552199 175.395316 49.5327747 177.956667 49.5327747 177.956667 50.3570671 175.395316 50.3570671 175.395316 53.1505023"></polygon>
                    <path d="M181.266868,51.3645355 L180.448412,53.1962963 L179.311667,53.1962963 L182.176264,46.8309275 L183.222069,46.8309275 L186.086667,53.1962963 L184.904452,53.1962963 L184.085996,51.3645355 L181.266868,51.3645355 Z M183.722237,50.4944491 L182.676432,48.0673661 L181.630626,50.4944491 L183.722237,50.4944491 Z" id="Shape" fill="#0068B3" fill-rule="nonzero"></path>
                    <path d="M186.54487,51.27757 L187.460056,51.27757 C187.460056,51.588835 187.590797,51.8556336 187.765118,52.0334993 C187.983019,52.211365 188.2445,52.3447643 188.549562,52.3002978 C188.854624,52.3002978 189.159686,52.211365 189.377587,52.0334993 C189.595488,51.8556336 189.726229,51.5443686 189.682649,51.27757 C189.682649,51.0552379 189.595488,50.7884394 189.464748,50.6550401 C189.159686,50.432708 188.854624,50.2993087 188.505982,50.2103758 L188.375241,50.2103758 C187.895858,50.121443 187.460056,49.8991109 187.111414,49.5433795 C186.980673,49.4099802 186.893512,49.2765809 186.849932,49.0987152 C186.806352,48.9208495 186.762772,48.7874502 186.762772,48.6095845 C186.719191,48.1204538 186.937093,47.6313232 187.285735,47.3200582 C187.677957,46.9643268 188.15734,46.8309275 188.680303,46.8309275 C189.159686,46.8309275 189.595488,46.9643268 189.987711,47.2755918 C190.336353,47.5868567 190.510674,48.031521 190.510674,48.4761852 L189.508328,48.4761852 C189.508328,48.2538531 189.421167,48.031521 189.246846,47.8981217 C188.854624,47.5868567 188.331661,47.5868567 187.939439,47.8981217 C187.765118,48.0759874 187.677957,48.2983195 187.677957,48.5206517 C187.677957,48.6095845 187.677957,48.6985174 187.677957,48.7874502 C187.721537,48.8763831 187.765118,48.9653159 187.852278,49.0097824 C188.11376,49.2321145 188.418821,49.3210473 188.723883,49.3655138 L189.203266,49.498913 C189.595488,49.6323123 189.987711,49.8546444 190.249192,50.1659094 C190.467094,50.4771744 190.597834,50.8329058 190.597834,51.2331036 C190.641415,51.7667007 190.423513,52.3002978 190.031291,52.6560292 C189.595488,53.0562271 189.072525,53.2340928 188.505982,53.1896263 C187.983019,53.2340928 187.460056,53.0117606 187.067833,52.6560292 C186.675611,52.3002978 186.50129,51.7667007 186.54487,51.27757 Z" id="Path" fill="#0068B3" fill-rule="nonzero"></path>
                    <polygon id="Path" fill="#0068B3" fill-rule="nonzero" points="194.265643 53.1962963 193.264357 53.1962963 193.264357 47.7010139 191.958333 47.7010139 191.958333 46.8309275 195.571667 46.8309275 195.571667 47.7010139 194.265643 47.7010139"></polygon>
                    <polygon id="Path" fill="#0068B3" fill-rule="nonzero" points="200.991667 53.1962963 197.378333 53.1962963 197.378333 46.8309275 200.991667 46.8309275 200.991667 47.6552199 198.379618 47.6552199 198.379618 49.5327747 200.991667 49.5327747 200.991667 50.3570671 198.379618 50.3570671 198.379618 52.2804159 200.991667 52.2804159"></polygon>
                    <polygon id="Path" fill="#0068B3" fill-rule="nonzero" points="204.321812 53.1962963 203.25 53.1962963 203.25 46.8309275 204.368413 46.8309275 208.049854 51.6850936 208.049854 46.8309275 209.121667 46.8309275 209.121667 53.1962963 208.096455 53.1962963 204.228611 48.2505421"></polygon>
                    <polygon id="Path" fill="#0068B3" fill-rule="nonzero" points="211.831667 53.1962963 210.928333 53.1962963 210.928333 46.8309275 211.831667 46.8309275"></polygon>
                    <polygon id="Path" fill="#0068B3" fill-rule="nonzero" points="215.161812 53.1962963 214.09 53.1962963 214.09 46.8309275 215.208413 46.8309275 218.889854 51.6850936 218.889854 46.8309275 219.961667 46.8309275 219.961667 53.1962963 218.936455 53.1962963 215.161812 48.2505421"></polygon>
                    <path d="M223.908445,49.7605661 L228.091667,49.7605661 C228.091667,50.7006516 227.727908,51.5937328 227.091331,52.2517926 C226.454754,52.9098525 225.590828,53.2388824 224.681432,53.1918781 C224.226734,53.1918781 223.726566,53.0978696 223.317338,52.9098525 C222.90811,52.7218354 222.498881,52.4398097 222.180593,52.0637755 C221.907774,51.7817499 221.680425,51.4057157 221.544016,51.0296815 C221.407606,50.606643 221.316667,50.1836045 221.316667,49.7605661 C221.316667,49.3375276 221.407606,48.8674849 221.589485,48.4444464 C221.771365,48.0214079 222.044183,47.6453737 222.362472,47.3163438 C222.680761,46.9873139 223.044519,46.7522925 223.453747,46.6112797 C223.862975,46.4702669 224.317673,46.3762583 224.772371,46.3762583 C225.408949,46.3762583 226.000056,46.5172711 226.545694,46.8463011 C227.045861,47.1283267 227.455089,47.5983694 227.682438,48.1624207 L226.500224,48.1624207 C226.272875,47.8803951 226.000056,47.692378 225.727237,47.5513652 C225.408949,47.4103523 225.04519,47.3163438 224.681432,47.3163438 C224.363143,47.3163438 224.090324,47.3633481 223.772036,47.5043609 C223.499217,47.6453737 223.226398,47.7863865 222.999049,48.0214079 C222.7717,48.2564293 222.589821,48.5384549 222.453412,48.8204806 C222.317002,49.1025062 222.271532,49.4315361 222.271532,49.7605661 C222.271532,50.089596 222.317002,50.4186259 222.453412,50.7006516 C222.544351,50.9826772 222.72623,51.2647029 222.953579,51.4997242 C223.180928,51.7347456 223.453747,51.9227627 223.726566,52.0637755 C223.999385,52.2047883 224.317673,52.2517926 224.635962,52.2517926 C225.09066,52.2517926 225.590828,52.1107798 226.000056,51.8757584 C226.409284,51.5937328 226.727573,51.1706943 226.954922,50.7006516 L223.908445,50.7006516 L223.908445,49.7605661 Z" id="Path" fill="#0068B3" fill-rule="nonzero"></path>
                    <polygon id="Path" fill="#0068B3" fill-rule="nonzero" points="116.506838 52.6968006 115.626667 48.6624119 114.005299 52.7416271 113.72735 52.7416271 112.105983 48.6624119 111.225812 52.6968006 110.206667 52.6968006 111.59641 46.3762583 112.059658 46.3762583 113.82 50.9485655 115.441368 46.3762583 115.904615 46.3762583 117.433333 52.6968006"></polygon>
                    <path d="M118.336667,49.5589427 C118.336667,49.1169032 118.425337,48.7190677 118.602679,48.3212321 C118.824356,47.9233966 119.090368,47.569765 119.445051,47.2603373 C119.799734,46.9951136 120.198753,46.7740939 120.597771,46.5972781 C121.041125,46.4646662 121.484479,46.3762583 121.972168,46.3762583 C122.459857,46.3762583 122.903211,46.4204623 123.346564,46.5972781 C123.789918,46.7298899 124.188937,46.9951136 124.499284,47.2603373 C124.853967,47.525561 125.11998,47.8791926 125.297321,48.2770282 C125.474663,48.6748637 125.563333,49.0726993 125.563333,49.5147388 C125.563333,49.9125743 125.474663,50.3546138 125.341656,50.7082454 C125.164315,51.061877 124.942638,51.4155086 124.63229,51.6807323 C124.277607,52.0343639 123.834254,52.2995876 123.3909,52.4764034 C122.903211,52.6532192 122.415521,52.7416271 121.927832,52.7416271 C121.440143,52.7416271 120.908119,52.6532192 120.464765,52.4764034 C120.021411,52.2995876 119.578057,52.0343639 119.223374,51.6807323 C118.913027,51.4155086 118.69135,51.061877 118.514008,50.7082454 C118.381002,50.3988178 118.336667,50.0009822 118.336667,49.5589427 Z M119.400716,49.5589427 C119.400716,49.8683704 119.445051,50.177798 119.578057,50.4430217 C119.711063,50.7082454 119.888405,50.9734691 120.110082,51.1944889 C120.376094,51.4155086 120.642106,51.5923244 120.952454,51.7249362 C121.262802,51.8575481 121.573149,51.901752 121.927832,51.901752 C122.592863,51.945956 123.257894,51.7249362 123.789918,51.3271007 C124.277607,50.8850612 124.54362,50.2662059 124.54362,49.6473506 C124.54362,49.3821269 124.499284,49.0726993 124.366278,48.8516795 C124.233272,48.5864558 124.05593,48.3654361 123.834254,48.1444163 C123.568241,47.9233966 123.302229,47.7023768 122.991881,47.569765 C122.681534,47.4371531 122.326851,47.3929492 121.972168,47.3929492 C121.66182,47.3929492 121.307137,47.4371531 120.996789,47.569765 C120.686442,47.6581729 120.420429,47.8349887 120.198753,48.0560084 C119.977076,48.2770282 119.755399,48.4980479 119.622393,48.8074756 C119.489387,49.0284953 119.400716,49.293719 119.400716,49.5589427 Z" id="Shape" fill="#0068B3" fill-rule="nonzero"></path>
                    <path d="M128.457181,53.1962963 L127.37,53.1962963 L127.37,46.8377892 L129.544361,46.8377892 C130.300661,46.7920446 131.009692,46.9750232 131.624185,47.3867251 C132.096872,47.7526823 132.380485,48.3473628 132.333216,48.8962987 C132.333216,49.3994899 132.144141,49.8569365 131.718723,50.177149 C131.293304,50.5431063 130.726079,50.7260849 130.158855,50.7260849 L132.285947,53.1505516 L130.962423,53.1505516 L128.409912,50.1314044 L128.409912,53.1962963 L128.457181,53.1962963 Z M128.457181,50.177149 L129.024405,50.177149 C129.59163,50.2228937 130.158855,50.0856597 130.678811,49.8569365 C131.009692,49.6739578 131.246035,49.3080006 131.246035,48.9420434 C131.293304,48.5760861 131.104229,48.2101289 130.773348,48.0271502 C130.300661,47.798427 129.780705,47.7069377 129.260749,47.7526823 L128.457181,47.7526823 L128.457181,50.177149 Z" id="Shape" fill="#0068B3" fill-rule="nonzero"></path>
                    <polygon id="Path" fill="#0068B3" fill-rule="nonzero" points="137.306667 53.1962963 133.693333 53.1962963 133.693333 46.8309275 137.306667 46.8309275 137.306667 47.6552199 134.694618 47.6552199 134.694618 49.5327747 137.306667 49.5327747 137.306667 50.3570671 134.694618 50.3570671 134.694618 52.2804159 137.306667 52.2804159"></polygon>
                    <polygon id="Path" fill="#0068B3" fill-rule="nonzero" points="145.937309 53.1962963 144.936024 53.1962963 144.936024 47.7010139 143.63 47.7010139 143.63 46.8309275 147.243333 46.8309275 147.243333 47.7010139 145.937309 47.7010139"></polygon>
                    <polygon id="Path" fill="#0068B3" fill-rule="nonzero" points="149.618616 53.1962963 148.598333 53.1962963 148.598333 46.8309275 149.618616 46.8309275 149.618616 49.5327747 152.546384 49.5327747 152.546384 46.8309275 153.566667 46.8309275 153.566667 53.1962963 152.546384 53.1962963 152.546384 50.4486551 149.618616 50.4486551"></polygon>
                    <path d="M156.831398,51.3645355 L156.012942,53.1962963 L154.921667,53.1962963 L157.786264,46.8309275 L158.832069,46.8309275 L161.696667,53.1962963 L160.559922,53.1962963 L159.741465,51.3645355 L156.831398,51.3645355 Z M159.286767,50.4944491 L158.240962,48.0673661 L157.195157,50.4944491 L159.286767,50.4944491 Z" id="Shape" fill="#0068B3" fill-rule="nonzero"></path>
                    <polygon id="Path" fill="#0068B3" fill-rule="nonzero" points="163.671812 53.1962963 162.6 53.1962963 162.6 46.8309275 163.718413 46.8309275 167.399854 51.6850936 167.399854 46.8309275 168.471667 46.8309275 168.471667 53.1962963 167.446455 53.1962963 163.671812 48.2505421"></polygon>
                    <polygon id="Path" fill="#0068B3" fill-rule="nonzero" points="174.343333 53.1962963 174.343333 46.8309275 177.956667 46.8309275 177.956667 47.6552199 175.395316 47.6552199 175.395316 49.5327747 177.956667 49.5327747 177.956667 50.3570671 175.395316 50.3570671 175.395316 53.1505023"></polygon>
                    <path d="M181.266868,51.3645355 L180.448412,53.1962963 L179.311667,53.1962963 L182.176264,46.8309275 L183.222069,46.8309275 L186.086667,53.1962963 L184.904452,53.1962963 L184.085996,51.3645355 L181.266868,51.3645355 Z M183.722237,50.4944491 L182.676432,48.0673661 L181.630626,50.4944491 L183.722237,50.4944491 Z" id="Shape" fill="#0068B3" fill-rule="nonzero"></path>
                    <path d="M186.54487,51.27757 L187.460056,51.27757 C187.460056,51.588835 187.590797,51.8556336 187.765118,52.0334993 C187.983019,52.211365 188.2445,52.3447643 188.549562,52.3002978 C188.854624,52.3002978 189.159686,52.211365 189.377587,52.0334993 C189.595488,51.8556336 189.726229,51.5443686 189.682649,51.27757 C189.682649,51.0552379 189.595488,50.7884394 189.464748,50.6550401 C189.159686,50.432708 188.854624,50.2993087 188.505982,50.2103758 L188.375241,50.2103758 C187.895858,50.121443 187.460056,49.8991109 187.111414,49.5433795 C186.980673,49.4099802 186.893512,49.2765809 186.849932,49.0987152 C186.806352,48.9208495 186.762772,48.7874502 186.762772,48.6095845 C186.719191,48.1204538 186.937093,47.6313232 187.285735,47.3200582 C187.677957,46.9643268 188.15734,46.8309275 188.680303,46.8309275 C189.159686,46.8309275 189.595488,46.9643268 189.987711,47.2755918 C190.336353,47.5868567 190.510674,48.031521 190.510674,48.4761852 L189.508328,48.4761852 C189.508328,48.2538531 189.421167,48.031521 189.246846,47.8981217 C188.854624,47.5868567 188.331661,47.5868567 187.939439,47.8981217 C187.765118,48.0759874 187.677957,48.2983195 187.677957,48.5206517 C187.677957,48.6095845 187.677957,48.6985174 187.677957,48.7874502 C187.721537,48.8763831 187.765118,48.9653159 187.852278,49.0097824 C188.11376,49.2321145 188.418821,49.3210473 188.723883,49.3655138 L189.203266,49.498913 C189.595488,49.6323123 189.987711,49.8546444 190.249192,50.1659094 C190.467094,50.4771744 190.597834,50.8329058 190.597834,51.2331036 C190.641415,51.7667007 190.423513,52.3002978 190.031291,52.6560292 C189.595488,53.0562271 189.072525,53.2340928 188.505982,53.1896263 C187.983019,53.2340928 187.460056,53.0117606 187.067833,52.6560292 C186.675611,52.3002978 186.50129,51.7667007 186.54487,51.27757 Z" id="Path" fill="#0068B3" fill-rule="nonzero"></path>
                    <polygon id="Path" fill="#0068B3" fill-rule="nonzero" points="194.265643 53.1962963 193.264357 53.1962963 193.264357 47.7010139 191.958333 47.7010139 191.958333 46.8309275 195.571667 46.8309275 195.571667 47.7010139 194.265643 47.7010139"></polygon>
                    <polygon id="Path" fill="#0068B3" fill-rule="nonzero" points="200.991667 53.1962963 197.378333 53.1962963 197.378333 46.8309275 200.991667 46.8309275 200.991667 47.6552199 198.379618 47.6552199 198.379618 49.5327747 200.991667 49.5327747 200.991667 50.3570671 198.379618 50.3570671 198.379618 52.2804159 200.991667 52.2804159"></polygon>
                    <polygon id="Path" fill="#0068B3" fill-rule="nonzero" points="204.321812 53.1962963 203.25 53.1962963 203.25 46.8309275 204.368413 46.8309275 208.049854 51.6850936 208.049854 46.8309275 209.121667 46.8309275 209.121667 53.1962963 208.096455 53.1962963 204.228611 48.2505421"></polygon>
                    <polygon id="Path" fill="#0068B3" fill-rule="nonzero" points="211.831667 53.1962963 210.928333 53.1962963 210.928333 46.8309275 211.831667 46.8309275"></polygon>
                    <polygon id="Path" fill="#0068B3" fill-rule="nonzero" points="215.161812 53.1962963 214.09 53.1962963 214.09 46.8309275 215.208413 46.8309275 218.889854 51.6850936 218.889854 46.8309275 219.961667 46.8309275 219.961667 53.1962963 218.936455 53.1962963 215.161812 48.2505421"></polygon>
                    <path d="M223.908445,49.7605661 L228.091667,49.7605661 C228.091667,50.7006516 227.727908,51.5937328 227.091331,52.2517926 C226.454754,52.9098525 225.590828,53.2388824 224.681432,53.1918781 C224.226734,53.1918781 223.726566,53.0978696 223.317338,52.9098525 C222.90811,52.7218354 222.498881,52.4398097 222.180593,52.0637755 C221.907774,51.7817499 221.680425,51.4057157 221.544016,51.0296815 C221.407606,50.606643 221.316667,50.1836045 221.316667,49.7605661 C221.316667,49.3375276 221.407606,48.8674849 221.589485,48.4444464 C221.771365,48.0214079 222.044183,47.6453737 222.362472,47.3163438 C222.680761,46.9873139 223.044519,46.7522925 223.453747,46.6112797 C223.862975,46.4702669 224.317673,46.3762583 224.772371,46.3762583 C225.408949,46.3762583 226.000056,46.5172711 226.545694,46.8463011 C227.045861,47.1283267 227.455089,47.5983694 227.682438,48.1624207 L226.500224,48.1624207 C226.272875,47.8803951 226.000056,47.692378 225.727237,47.5513652 C225.408949,47.4103523 225.04519,47.3163438 224.681432,47.3163438 C224.363143,47.3163438 224.090324,47.3633481 223.772036,47.5043609 C223.499217,47.6453737 223.226398,47.7863865 222.999049,48.0214079 C222.7717,48.2564293 222.589821,48.5384549 222.453412,48.8204806 C222.317002,49.1025062 222.271532,49.4315361 222.271532,49.7605661 C222.271532,50.089596 222.317002,50.4186259 222.453412,50.7006516 C222.544351,50.9826772 222.72623,51.2647029 222.953579,51.4997242 C223.180928,51.7347456 223.453747,51.9227627 223.726566,52.0637755 C223.999385,52.2047883 224.317673,52.2517926 224.635962,52.2517926 C225.09066,52.2517926 225.590828,52.1107798 226.000056,51.8757584 C226.409284,51.5937328 226.727573,51.1706943 226.954922,50.7006516 L223.908445,50.7006516 L223.908445,49.7605661 Z" id="Path" fill="#0068B3" fill-rule="nonzero"></path>
                    <path d="M266.618833,0.533478527 L265.534833,0.533478527 L265.534833,3.58885555 L264.857333,3.58885555 L264.857333,0.533478527 L263.773333,0.533478527 L263.773333,0 L266.573667,0 L266.618833,0.533478527 Z M269.2385,2.57039654 L270.096667,0 L271,0 L271,3.63735359 L270.412833,3.63735359 L270.412833,0.678972671 L269.419167,3.63735359 L269.057833,3.63735359 L267.973833,0.678972671 L267.973833,3.63735359 L267.386667,3.63735359 L267.386667,0.0484980479 L268.335167,0.0484980479 L269.2385,2.57039654 Z" id="Shape" fill="#1D1D1B" fill-rule="nonzero"></path>
                </g>
            </g>
        </g>
    </g>
</svg>