<?xml version="1.0" standalone="no"?>
<!DOCTYPE svg PUBLIC "-//W3C//DTD SVG 20010904//EN"
 "http://www.w3.org/TR/2001/REC-SVG-20010904/DTD/svg10.dtd">
<svg version="1.0" xmlns="http://www.w3.org/2000/svg"
 width="1230.000000pt" height="352.000000pt" viewBox="0 0 1230.000000 352.000000"
 preserveAspectRatio="xMidYMid meet">
<metadata>
Created by potrace 1.16, written by Peter Selinger 2001-2019
</metadata>
<g transform="translate(0.000000,352.000000) scale(0.100000,-0.100000)"
fill="#000000" stroke="none">
<path d="M7440 3178 c-95 -6 -158 -14 -162 -22 -16 -24 -7 -36 25 -36 83 0
137 -35 137 -90 0 -29 -70 -352 -79 -362 -4 -4 -33 1 -66 11 -186 58 -338 20
-475 -117 -113 -113 -171 -252 -172 -418 -1 -159 47 -262 146 -313 40 -20 64
-25 120 -25 83 0 137 24 228 98 l56 45 6 -33 c20 -106 120 -129 287 -67 44 17
58 27 61 46 5 23 4 24 -61 18 -57 -5 -70 -2 -91 15 -22 17 -25 28 -23 74 1 29
58 298 128 598 69 300 127 554 128 565 2 25 2 25 -193 13z m-182 -557 c37 -26
63 -71 64 -109 0 -15 -23 -128 -52 -252 -50 -215 -54 -227 -89 -263 -20 -21
-64 -52 -98 -69 -53 -26 -71 -30 -118 -26 -109 9 -152 93 -142 273 12 216 106
393 242 457 56 26 149 21 193 -11z"/>
<path d="M10498 3145 c-56 -32 -77 -128 -38 -177 68 -87 190 -36 190 79 0 81
-85 136 -152 98z"/>
<path d="M256 3058 c-9 -35 -8 -35 29 -42 43 -8 90 -47 115 -96 21 -41 128
-385 161 -515 l21 -83 -41 -178 c-34 -146 -47 -184 -68 -206 -27 -28 -93 -48
-158 -48 -24 0 -35 -5 -35 -14 0 -8 -3 -21 -6 -30 -6 -14 24 -16 284 -16 l290
0 6 23 c9 34 9 34 -39 40 -72 10 -113 32 -121 63 -8 31 45 284 77 369 21 56
280 386 426 544 67 72 101 100 147 122 34 16 69 29 79 29 9 0 17 6 17 14 0 8
3 21 6 30 5 14 -17 16 -215 16 -122 0 -221 -3 -221 -7 0 -5 -3 -17 -6 -29 -5
-19 0 -22 46 -27 59 -7 100 -29 100 -54 0 -8 -16 -39 -36 -67 -50 -70 -339
-429 -358 -445 -13 -11 -22 10 -70 161 -82 258 -107 349 -101 369 7 22 62 39
126 39 44 0 47 2 51 30 l5 30 -253 0 -252 0 -6 -22z"/>
<path d="M4661 2933 c-18 -82 -35 -158 -38 -170 -4 -20 -1 -23 23 -23 24 1 35
11 64 57 45 72 151 180 195 199 22 9 70 14 130 14 94 0 95 0 90 -22 -3 -13
-57 -245 -120 -516 -62 -272 -121 -504 -130 -518 -22 -34 -62 -52 -136 -60
-65 -7 -79 -15 -79 -46 0 -17 20 -18 289 -18 l289 0 6 26 c4 15 6 27 4 29 -2
1 -30 7 -62 14 -82 15 -106 33 -106 76 0 19 52 258 115 531 63 273 115 498
115 500 0 2 46 4 103 4 83 0 108 -4 133 -19 40 -24 74 -94 88 -182 10 -66 12
-69 38 -69 15 0 28 3 28 8 0 4 16 74 35 156 19 82 35 155 35 162 0 12 -91 14
-538 14 l-538 0 -33 -147z"/>
<path d="M9287 3073 c-4 -3 -7 -16 -7 -29 0 -17 8 -24 33 -29 49 -11 87 -33
98 -59 9 -19 -11 -117 -101 -506 -61 -265 -118 -492 -126 -505 -19 -29 -57
-46 -121 -52 -34 -4 -53 -11 -53 -19 0 -7 -3 -19 -6 -28 -6 -14 41 -16 480
-16 l485 0 31 103 c18 56 40 131 51 167 11 36 22 73 25 83 4 13 -1 17 -23 17
-23 -1 -36 -12 -70 -59 -67 -92 -174 -203 -213 -219 -22 -9 -81 -17 -156 -20
-185 -7 -224 6 -224 75 0 47 207 938 226 976 18 33 59 53 132 63 32 4 52 11
52 19 0 8 3 20 6 29 6 14 -21 16 -253 16 -143 0 -263 -3 -266 -7z"/>
<path d="M11767 2943 c-2 -5 -17 -63 -32 -130 l-28 -123 -78 0 c-43 0 -80 -3
-82 -7 -3 -5 -8 -23 -12 -40 l-7 -33 76 0 c42 0 76 -4 76 -9 0 -5 -32 -148
-71 -318 -81 -354 -84 -397 -32 -443 53 -47 150 -50 283 -8 73 23 75 24 84 55
7 21 5 21 -73 16 -103 -7 -137 5 -152 57 -13 42 -15 29 68 398 l57 252 122 0
c118 0 122 1 128 23 15 57 16 57 -115 57 -110 0 -120 2 -115 18 3 9 15 60 26
112 12 52 24 103 26 113 5 15 -3 17 -70 17 -41 0 -77 -3 -79 -7z"/>
<path d="M1735 2704 c-57 -9 -130 -37 -187 -71 -243 -145 -337 -538 -174 -730
67 -80 211 -117 344 -89 245 51 412 273 412 548 0 154 -53 254 -163 308 -63
30 -161 45 -232 34z m125 -69 c69 -36 100 -112 100 -245 0 -175 -57 -354 -142
-446 -52 -57 -107 -83 -171 -84 -69 0 -112 24 -145 79 -26 44 -27 51 -27 191
0 107 5 162 18 210 24 88 67 178 108 225 65 73 188 107 259 70z"/>
<path d="M2435 2703 c-55 -12 -147 -46 -160 -60 -33 -32 -19 -42 53 -36 56 5
71 3 85 -11 29 -29 21 -115 -33 -336 -67 -277 -67 -353 2 -417 32 -30 102 -46
163 -38 66 8 135 41 209 98 62 49 76 51 76 12 0 -58 86 -113 158 -101 60 11
161 47 177 63 32 32 18 41 -54 35 -60 -4 -71 -2 -90 17 -33 33 -27 85 54 438
41 179 72 329 70 333 -4 6 -144 2 -152 -4 -1 -1 -34 -141 -73 -311 -39 -171
-75 -324 -81 -342 -11 -35 -92 -103 -152 -128 -86 -36 -164 -10 -187 61 -16
47 -11 78 50 335 56 238 62 311 30 352 -28 36 -89 53 -145 40z"/>
<path d="M3885 2698 c-36 -13 -92 -51 -160 -107 -27 -22 -52 -41 -56 -41 -4 0
-9 18 -12 40 -12 93 -71 123 -188 96 -88 -20 -149 -51 -149 -75 0 -17 6 -18
65 -13 55 4 69 2 86 -14 19 -17 21 -26 15 -84 -3 -36 -36 -200 -74 -365 l-68
-300 74 -3 c41 -2 77 -1 79 2 3 3 36 143 74 313 l70 308 56 54 c54 51 159 111
195 111 16 0 15 -4 -3 -57 -10 -31 -19 -66 -19 -78 0 -30 34 -63 74 -70 75
-15 128 50 128 156 0 63 -16 100 -52 119 -30 16 -102 21 -135 8z"/>
<path d="M6115 2704 c-57 -9 -130 -37 -187 -71 -243 -145 -337 -538 -174 -730
67 -80 211 -117 344 -89 245 51 412 273 412 548 0 154 -53 254 -163 308 -63
30 -161 45 -232 34z m125 -69 c69 -36 100 -112 100 -245 0 -175 -57 -354 -142
-446 -52 -57 -107 -83 -171 -84 -69 0 -112 24 -145 79 -26 44 -27 51 -27 191
0 107 5 162 18 210 24 88 67 178 108 225 65 73 188 107 259 70z"/>
<path d="M8125 2704 c-57 -9 -130 -37 -187 -71 -243 -145 -337 -538 -174 -730
67 -80 211 -117 344 -89 245 51 412 273 412 548 0 154 -53 254 -163 308 -63
30 -161 45 -232 34z m125 -69 c69 -36 100 -112 100 -245 0 -175 -57 -354 -142
-446 -52 -57 -107 -83 -171 -84 -69 0 -112 24 -145 79 -26 44 -27 51 -27 191
0 107 5 162 18 210 24 88 67 178 108 225 65 73 188 107 259 70z"/>
<path d="M10355 2703 c-55 -12 -147 -46 -160 -60 -33 -33 -19 -42 59 -36 72 6
74 5 91 -21 25 -38 18 -89 -56 -389 -66 -271 -68 -300 -28 -351 28 -35 90 -51
154 -38 64 13 165 51 165 62 0 5 3 15 6 23 4 12 -6 14 -65 9 -65 -4 -71 -3
-95 21 -18 18 -26 37 -26 60 0 18 29 152 65 297 36 145 65 282 65 304 0 91
-74 142 -175 119z"/>
<path d="M11047 2700 c-115 -20 -224 -107 -252 -203 -25 -86 -7 -153 57 -213
38 -37 69 -53 163 -89 137 -51 171 -89 163 -182 -8 -96 -63 -145 -168 -151
-83 -5 -114 10 -136 66 -28 73 -48 104 -77 118 -57 30 -127 -14 -127 -80 0
-78 78 -134 215 -156 239 -38 440 92 440 285 -1 109 -48 163 -198 227 -173 73
-197 94 -197 173 0 91 70 155 171 155 63 0 68 -4 93 -70 10 -25 27 -55 38 -67
70 -75 185 4 144 101 -30 72 -179 111 -329 86z"/>
<path d="M3565 1211 c-72 -5 -90 -9 -93 -22 -2 -12 8 -18 38 -23 72 -11 73 -8
-25 -432 -55 -241 -84 -387 -80 -403 17 -67 71 -83 175 -52 88 27 96 51 17 51
-62 0 -77 11 -77 57 0 18 41 207 90 420 50 213 90 393 90 400 0 7 -10 12 -22
11 -13 -1 -63 -4 -113 -7z"/>
<path d="M5345 1175 c-16 -15 -25 -36 -25 -55 0 -35 38 -80 67 -80 27 0 63 28
74 58 13 34 -4 76 -37 91 -37 16 -52 14 -79 -14z"/>
<path d="M2301 1155 c-68 -19 -109 -44 -154 -94 -73 -81 -86 -191 -32 -273 32
-48 63 -67 184 -115 51 -21 106 -49 121 -63 39 -36 55 -100 40 -158 -25 -100
-95 -147 -209 -140 -119 6 -178 66 -202 207 -10 55 -14 62 -32 59 -19 -3 -24
-19 -49 -138 -15 -74 -27 -141 -28 -147 0 -20 31 -15 57 8 l22 22 58 -25 c185
-82 414 -10 486 151 13 29 21 69 21 108 1 53 -3 67 -29 104 -31 44 -78 73
-237 143 -93 41 -113 67 -113 146 0 100 72 170 174 170 60 0 98 -17 134 -59
26 -31 47 -106 47 -166 0 -30 3 -35 23 -35 23 0 26 8 51 128 15 70 29 135 32
145 8 26 -40 23 -58 -5 l-14 -21 -55 26 c-70 34 -164 42 -238 22z"/>
<path d="M306 1135 c-3 -9 -6 -18 -6 -20 0 -1 15 -6 34 -9 18 -4 41 -15 51
-26 16 -18 14 -34 -60 -357 -42 -186 -82 -346 -87 -356 -11 -22 -67 -47 -103
-47 -18 0 -25 -5 -25 -20 0 -19 7 -20 218 -20 120 0 245 5 278 11 160 29 264
134 264 264 0 80 -54 139 -150 166 -64 18 -67 24 -18 38 135 40 220 144 205
252 -7 52 -32 85 -85 111 -44 22 -61 23 -278 26 -209 4 -232 2 -238 -13z m404
-50 c63 -32 76 -124 32 -212 -41 -80 -104 -113 -212 -113 -38 0 -70 2 -70 4 0
6 71 310 75 324 6 18 138 16 175 -3z m-61 -393 c55 -28 76 -64 75 -131 -2 -95
-59 -181 -147 -219 -36 -16 -135 -15 -167 1 -36 18 -36 58 0 210 17 73 33 138
35 145 7 20 162 16 204 -6z"/>
<path d="M1056 880 c-52 -16 -75 -32 -76 -50 0 -3 20 -4 45 -2 88 7 92 -23 40
-242 -19 -81 -35 -166 -35 -189 0 -132 143 -166 285 -66 32 22 59 38 61 37 7
-7 -28 -124 -51 -169 -34 -66 -69 -104 -118 -128 -67 -33 -93 -28 -117 19 -37
73 -92 87 -126 34 -21 -31 -5 -76 32 -93 64 -29 205 -21 277 16 41 21 106 82
134 127 45 70 74 167 134 444 32 150 59 275 59 277 0 4 -102 -5 -107 -9 -1 -1
-25 -105 -52 -230 -39 -179 -54 -233 -72 -252 -54 -58 -168 -84 -202 -46 -32
35 -30 73 12 250 23 94 41 187 41 206 0 73 -63 99 -164 66z"/>
<path d="M2756 880 c-52 -16 -75 -32 -76 -50 0 -3 20 -4 45 -2 88 7 92 -23 40
-242 -19 -81 -35 -166 -35 -189 0 -132 143 -166 285 -66 32 22 59 38 61 37 7
-7 -28 -124 -51 -169 -34 -66 -69 -104 -118 -128 -67 -33 -93 -28 -117 19 -37
73 -92 87 -126 34 -21 -31 -5 -76 32 -93 64 -29 205 -21 277 16 41 21 106 82
134 127 45 70 74 167 134 444 32 150 59 275 59 277 0 4 -102 -5 -107 -9 -1 -1
-25 -105 -52 -230 -39 -179 -54 -233 -72 -252 -54 -58 -168 -84 -202 -46 -32
35 -30 73 12 250 23 94 41 187 41 206 0 73 -63 99 -164 66z"/>
<path d="M4216 879 c-36 -28 -34 -71 4 -129 25 -37 30 -55 30 -103 0 -156
-111 -305 -236 -315 -42 -3 -55 0 -78 19 -43 38 -42 75 3 256 23 89 41 178 41
196 0 77 -64 101 -170 64 -81 -28 -93 -53 -23 -49 27 1 54 -1 62 -7 22 -14 15
-80 -23 -224 -39 -146 -43 -194 -22 -235 70 -135 285 -110 401 48 126 171 170
468 73 494 -32 8 -32 8 -62 -15z"/>
<path d="M4704 891 c-103 -26 -194 -108 -247 -219 -27 -57 -32 -80 -35 -160
-4 -84 -1 -98 23 -147 57 -117 174 -135 294 -44 57 43 61 45 61 25 0 -26 41
-65 75 -72 23 -4 55 1 99 16 81 27 89 50 18 50 -26 0 -53 5 -60 12 -21 21 -13
84 38 300 28 116 50 217 50 224 0 9 -12 9 -55 -2 -48 -13 -59 -13 -91 1 -45
19 -129 27 -170 16z m145 -57 c41 -34 40 -62 -4 -256 -31 -133 -40 -157 -67
-185 -83 -86 -195 -84 -229 4 -16 43 -10 176 11 245 54 174 197 270 289 192z"/>
<path d="M5237 889 c-48 -11 -97 -37 -97 -49 0 -6 20 -10 44 -10 24 0 51 -3
60 -6 26 -10 19 -87 -24 -263 -41 -165 -48 -228 -30 -261 13 -24 70 -43 106
-35 125 28 167 65 75 65 -55 0 -81 17 -81 55 0 12 20 106 45 206 25 101 45
200 45 220 0 68 -57 99 -143 78z"/>
<path d="M5930 891 c-40 -13 -92 -42 -131 -72 -44 -35 -49 -35 -49 -6 0 34
-27 66 -63 72 -57 11 -177 -36 -177 -68 0 -1 23 0 51 2 60 4 72 -5 72 -56 -1
-30 -76 -383 -99 -465 -5 -16 2 -18 49 -18 l55 0 22 98 c78 342 81 351 112
383 66 66 158 89 198 49 30 -30 26 -89 -20 -270 -22 -88 -40 -170 -40 -183 0
-35 36 -75 73 -82 43 -8 163 29 169 53 4 15 -2 17 -44 14 -92 -7 -96 15 -37
250 46 186 46 225 2 269 -31 31 -97 45 -143 30z"/>
</g>
</svg>
