<?xml version="1.0" standalone="no"?>
<!DOCTYPE svg PUBLIC "-//W3C//DTD SVG 20010904//EN"
 "http://www.w3.org/TR/2001/REC-SVG-20010904/DTD/svg10.dtd">
<svg version="1.0" xmlns="http://www.w3.org/2000/svg"
 width="1000.000000pt" height="1500.000000pt" viewBox="0 0 1000.000000 1500.000000"
 preserveAspectRatio="xMidYMid meet">
<metadata>
Created by potrace 1.16, written by Peter Selinger 2001-2019
</metadata>
<g transform="translate(0.000000,1500.000000) scale(0.100000,-0.100000)"
fill="#000000" stroke="none">
<path d="M5826 14823 c-14 -15 -26 -36 -26 -46 0 -10 -5 -27 -10 -38 -10 -17
-18 -19 -78 -13 -37 4 -80 12 -97 19 -16 7 -44 13 -61 13 -27 1 -30 -2 -26
-24 3 -19 9 -23 27 -18 15 4 24 0 28 -10 4 -9 16 -16 27 -16 11 0 20 -5 20
-11 0 -8 13 -10 38 -7 24 4 42 1 50 -8 7 -8 26 -14 42 -14 25 0 33 7 47 38 12
24 26 38 41 40 25 4 27 14 10 42 -11 16 -10 23 6 37 17 17 18 17 11 -6 -5 -17
-4 -22 6 -19 8 3 14 18 14 34 0 41 -35 44 -69 7z"/>
<path d="M6008 14673 c-10 -2 -18 -13 -18 -23 0 -10 -6 -20 -14 -23 -10 -4
-14 -16 -12 -34 2 -15 4 -34 5 -42 1 -10 4 -11 14 -2 13 10 42 5 102 -20 11
-5 27 -8 35 -7 33 3 50 -3 50 -17 0 -10 10 -15 30 -15 18 0 33 -6 36 -15 4 -8
10 -15 14 -15 22 0 92 -83 104 -122 12 -42 13 -41 11 47 -3 127 -15 222 -27
200 -5 -9 -7 -23 -4 -30 7 -19 -30 -39 -65 -37 -33 3 -95 28 -104 42 -4 6 -10
8 -15 5 -4 -3 -10 2 -14 10 -3 8 -11 12 -19 9 -17 -6 -46 26 -56 62 -7 29 -21
36 -53 27z"/>
<path d="M4954 14059 c5 -31 3 -39 -16 -51 -13 -8 -36 -18 -51 -22 -15 -3 -25
-11 -22 -15 3 -5 13 -7 23 -5 9 3 37 -2 61 -11 59 -21 103 -19 147 6 29 16 35
17 31 5 -5 -12 0 -16 22 -16 24 0 28 3 24 20 -4 13 -14 20 -31 20 -14 0 -34 8
-45 18 -10 9 -33 17 -51 17 -24 0 -31 4 -31 19 0 13 -8 20 -23 21 -13 1 -28 8
-34 16 -7 10 -8 3 -4 -22z"/>
<path d="M5352 13927 c-12 -7 -21 -16 -19 -22 4 -9 34 -11 137 -5 26 2 46 -2
48 -9 2 -6 8 -8 13 -5 6 3 22 -2 37 -12 30 -21 104 -26 140 -10 21 9 21 10 5
29 -13 14 -26 17 -49 14 -17 -3 -36 -1 -41 4 -6 6 -48 11 -94 13 -46 2 -100 6
-119 9 -19 3 -45 0 -58 -6z"/>
<path d="M5740 13860 c0 -21 8 -24 49 -20 13 1 21 -3 17 -8 -3 -6 8 -9 27 -8
30 1 32 -1 29 -28 -3 -24 0 -27 15 -21 10 4 29 7 43 5 14 -1 40 -3 58 -3 17 0
32 -5 32 -9 0 -5 5 -6 10 -3 6 3 10 1 10 -5 0 -7 12 -9 30 -6 23 3 30 0 30
-12 0 -11 3 -13 8 -6 10 16 64 9 74 -10 5 -9 14 -16 19 -16 6 0 7 6 2 13 -4 6
5 4 20 -5 15 -10 45 -18 70 -18 27 0 49 -6 57 -15 7 -8 18 -15 24 -15 24 0 57
-52 66 -103 15 -83 19 -107 25 -156 9 -63 15 -81 26 -81 5 0 9 8 9 17 0 9 8
25 17 35 9 10 17 29 18 43 1 22 -4 26 -40 34 -22 5 -29 41 -33 169 -5 130 -5
132 -26 125 -35 -13 -113 -6 -172 17 -31 11 -59 18 -62 16 -2 -3 -16 1 -31 8
-14 7 -73 19 -131 26 -133 16 -123 14 -135 22 -12 7 -128 38 -144 38 -6 0 -11
-9 -11 -20z"/>
<path d="M6486 13240 c3 -36 8 -102 10 -148 1 -45 6 -86 9 -91 3 -5 1 -12 -5
-16 -6 -4 -7 -12 0 -24 6 -12 5 -22 -2 -29 -9 -9 -9 -15 0 -24 19 -19 14 -60
-11 -98 -25 -37 -30 -96 -9 -109 17 -10 31 -55 37 -118 3 -32 10 -96 15 -143
16 -148 22 -233 23 -363 2 -160 8 -155 -156 -141 -42 4 -80 11 -83 15 -3 5
-18 9 -33 9 -15 0 -31 4 -37 8 -12 11 -85 32 -111 32 -25 0 -65 -37 -61 -57 3
-15 88 -29 88 -14 0 9 26 11 62 5 17 -4 35 -18 48 -40 21 -33 22 -34 51 -18
24 12 34 13 45 3 9 -7 18 -8 27 -2 20 16 64 14 71 -3 3 -8 10 -13 16 -9 14 9
62 -74 72 -125 4 -24 11 -74 14 -110 3 -36 9 -67 14 -70 5 -3 9 -59 11 -125 1
-66 7 -131 12 -145 20 -52 53 -227 67 -360 16 -142 23 -391 12 -447 -5 -29 -5
-53 -1 -53 5 0 9 -7 9 -15 0 -8 -5 -15 -11 -15 -6 0 -9 -14 -8 -32 4 -48 -8
-75 -37 -82 -26 -7 -65 1 -74 14 -3 4 -33 26 -66 48 -60 41 -94 52 -94 32 0
-15 55 -67 79 -75 12 -3 21 -10 21 -14 0 -5 12 -14 28 -20 17 -8 42 -38 70
-86 47 -81 51 -93 61 -179 7 -55 6 -59 -17 -67 -32 -12 -33 -12 -83 16 -24 14
-51 28 -59 32 -8 3 -17 9 -20 13 -3 3 -23 17 -45 31 -22 13 -47 29 -56 34 -51
31 -125 67 -147 71 -14 3 -37 13 -51 23 -14 10 -55 28 -91 41 -36 13 -72 29
-81 37 -8 7 -28 13 -42 13 -15 0 -27 4 -27 9 0 11 -87 61 -106 61 -8 0 -14 4
-14 9 0 5 -30 17 -67 27 -38 9 -77 22 -88 28 -11 5 -24 11 -30 12 -5 1 -32 9
-59 18 -27 9 -51 14 -54 11 -3 -3 0 -5 7 -5 8 0 11 -7 7 -15 -3 -10 1 -18 12
-21 9 -3 27 -11 40 -17 12 -6 38 -11 57 -11 19 -1 35 -4 35 -8 0 -5 11 -8 24
-8 13 0 26 -7 30 -15 3 -8 12 -15 20 -15 8 0 21 -8 28 -17 9 -13 30 -19 68
-21 41 -3 65 -11 94 -33 22 -16 46 -29 53 -29 11 0 11 -5 3 -20 -6 -11 -7 -19
-3 -19 4 1 22 -3 38 -10 17 -7 35 -14 41 -15 7 -1 18 -7 25 -12 8 -6 30 -16
49 -24 68 -25 90 -35 90 -41 0 -6 67 -42 80 -44 16 -2 70 -31 70 -38 0 -5 4
-6 9 -2 5 3 12 -4 16 -15 3 -11 12 -20 18 -20 7 0 23 -9 37 -20 14 -11 32 -20
41 -20 9 0 22 -7 29 -15 6 -8 15 -14 18 -13 20 2 32 -3 27 -11 -3 -5 10 -22
30 -37 19 -14 35 -32 35 -39 0 -7 6 -18 13 -24 8 -6 20 -30 27 -53 7 -24 28
-76 47 -116 18 -40 33 -76 33 -81 0 -5 12 -16 26 -26 25 -16 27 -16 47 3 18
19 19 22 3 37 -9 9 -16 22 -16 28 0 7 -6 24 -14 39 -16 31 -36 225 -36 355 0
80 -3 92 -30 136 -17 26 -35 45 -41 41 -19 -11 3 313 26 386 3 8 5 38 6 65 1
28 7 66 14 85 7 20 10 66 7 108 -3 46 0 77 7 86 14 17 9 80 -9 101 -7 8 -21
15 -31 15 -11 0 -19 1 -19 3 0 1 -7 35 -15 75 -14 64 -14 76 -1 101 32 61 11
161 -34 161 -15 0 -20 10 -26 56 -9 77 0 150 21 174 16 18 17 23 5 45 -7 14
-21 25 -31 25 -32 0 -32 37 -1 93 l30 52 -24 38 c-14 21 -29 35 -33 32 -16
-10 -23 95 -16 243 4 81 11 154 16 163 15 29 63 79 76 79 21 0 15 31 -7 37
-10 3 -21 13 -24 22 -6 20 -42 281 -52 371 -9 85 -19 110 -44 110 -19 0 -20 6
-20 123 0 139 11 192 43 208 12 7 25 16 28 21 3 5 17 10 30 10 13 1 34 10 46
21 12 10 26 16 32 12 6 -3 11 -2 11 4 0 18 -63 23 -94 7 -21 -11 -35 -12 -54
-5 -15 6 -36 8 -48 5 -15 -4 -24 1 -33 17 -9 18 -10 10 -5 -43z"/>
<path d="M8731 13120 c-13 -11 -29 -20 -37 -20 -8 0 -14 -7 -14 -16 0 -21 45
-75 56 -66 5 4 2 -1 -5 -10 -7 -9 -10 -26 -6 -37 5 -16 12 -18 46 -14 38 6 43
3 90 -47 50 -51 71 -61 50 -22 -15 28 -14 57 3 72 23 19 8 40 -25 36 -17 -2
-36 2 -43 10 -7 7 -30 16 -50 20 -32 6 -37 10 -32 28 21 73 21 72 1 56 -16
-14 -17 -13 -11 8 9 27 7 27 -23 2z"/>
<path d="M8794 12799 c2 -13 7 -31 10 -40 4 -10 6 -25 4 -34 -2 -13 6 -18 36
-21 22 -2 42 -8 45 -13 3 -5 26 -9 51 -8 25 0 56 -3 69 -8 22 -7 22 -6 11 14
-6 13 -25 27 -41 33 -16 5 -29 14 -29 19 0 4 -7 6 -16 2 -12 -4 -14 0 -9 19 9
34 -12 48 -79 55 -53 6 -55 5 -52 -18z"/>
<path d="M9158 12397 c-21 -12 -39 -30 -40 -39 -4 -45 -2 -51 17 -54 43 -6
128 -41 141 -59 8 -10 14 -14 14 -8 0 17 -79 183 -87 183 -5 -1 -25 -11 -45
-23z"/>
<path d="M7530 11931 c0 -5 14 -19 30 -31 31 -22 40 -55 18 -63 -7 -2 -9 -8
-5 -13 5 -5 15 -1 23 10 13 18 14 18 20 1 12 -30 -9 -50 -49 -47 -19 2 -49 -4
-66 -13 -30 -15 -32 -15 -53 10 -29 34 -41 31 -34 -7 7 -38 -1 -53 -31 -62
-31 -10 -29 -24 3 -32 40 -10 106 14 136 49 l27 32 28 -29 c15 -16 22 -25 14
-21 -9 5 -12 3 -9 -5 2 -7 25 -13 58 -14 30 -1 64 -6 75 -11 19 -9 20 -8 2 18
-22 34 -22 50 3 72 11 10 20 22 20 27 0 6 -9 21 -20 35 -27 35 -25 51 10 71
16 9 30 20 30 25 0 13 -37 7 -50 -8 -16 -19 -51 -19 -76 0 -21 16 -104 21
-104 6z"/>
<path d="M8015 11628 c-4 -10 -16 -18 -26 -18 -10 0 -19 -6 -19 -14 0 -17 -24
-28 -68 -32 -35 -3 -58 -14 -29 -14 10 0 17 -4 17 -10 0 -5 -4 -10 -9 -10 -5
0 -16 -3 -24 -6 -12 -4 -16 3 -19 28 -2 25 -8 34 -25 36 -21 3 -22 2 -7 -28
13 -24 13 -34 4 -45 -9 -11 -9 -15 -1 -15 7 0 9 -9 5 -24 -3 -15 1 -29 11 -40
21 -20 38 -9 61 38 40 83 36 80 93 58 10 -4 13 0 9 16 -4 12 -3 20 2 17 12 -7
42 44 37 63 -4 16 -4 16 -12 0z"/>
<path d="M3958 11073 c-11 -3 -18 -14 -18 -28 0 -13 -4 -26 -9 -29 -7 -5 -8
-27 -2 -58 2 -14 110 -6 122 8 7 8 9 17 6 21 -4 3 -2 14 4 25 8 16 5 24 -16
44 -25 23 -48 27 -87 17z"/>
<path d="M4650 10814 c-6 -14 -10 -26 -10 -27 0 -2 17 -11 38 -22 20 -11 40
-24 43 -29 4 -5 21 -4 40 3 26 9 35 8 49 -4 9 -8 19 -12 22 -9 3 3 20 6 37 6
54 2 35 27 -51 68 -101 49 -154 53 -168 14z"/>
<path d="M1820 10200 c-6 -11 -17 -20 -25 -20 -8 0 -15 -9 -15 -19 0 -11 -5
-23 -11 -27 -8 -4 -7 -9 2 -15 11 -6 11 -11 1 -21 -20 -20 -15 -40 8 -33 14 5
20 2 20 -9 0 -9 -5 -16 -12 -16 -6 0 -9 -3 -6 -6 4 -3 20 2 37 10 27 14 30 14
25 1 -3 -8 -10 -13 -14 -10 -13 8 -22 -27 -10 -39 8 -8 15 -6 24 5 10 14 15
15 29 4 9 -7 17 -18 17 -25 0 -7 6 -10 14 -7 8 3 17 1 20 -6 4 -7 4 -2 2 11
-3 14 1 22 9 22 16 0 57 49 50 60 -3 4 2 10 10 14 25 9 17 37 -14 49 -17 6
-32 21 -36 34 -4 17 -13 23 -33 24 -22 0 -23 2 -9 8 18 7 18 8 1 21 -11 9 -15
10 -10 3 4 -8 1 -13 -8 -13 -9 0 -16 5 -16 12 0 6 -9 3 -20 -7 -18 -17 -20
-17 -14 -2 9 24 -3 21 -16 -3z"/>
<path d="M8592 10140 c-9 -16 -23 -20 -61 -20 -48 0 -49 0 -57 -37 -4 -21 -8
-42 -8 -48 -1 -5 -11 -11 -22 -13 -35 -5 -114 -87 -114 -118 0 -20 4 -25 16
-20 9 3 20 6 24 6 15 0 60 50 60 65 0 9 9 15 21 15 18 0 19 -2 9 -15 -16 -19
-7 -19 29 0 16 8 31 21 34 30 4 8 17 16 29 16 18 1 19 2 5 6 -11 3 -16 11 -13
19 3 8 1 14 -5 14 -6 0 -7 5 -3 12 4 7 3 8 -4 4 -7 -4 -17 -4 -22 -1 -15 10
11 31 48 39 21 5 36 17 46 37 16 33 8 40 -12 9z"/>
<path d="M2389 9893 c-1 -2 -2 -9 -3 -15 -2 -13 -56 -14 -86 -1 -13 5 -42 7
-70 4 -5 -1 -6 -9 -3 -18 5 -12 2 -15 -10 -10 -11 4 -17 1 -17 -7 0 -8 7 -13
16 -12 9 0 19 -6 21 -14 3 -11 2 -12 -5 -2 -6 9 -12 6 -20 -13 -15 -33 -15
-35 2 -35 8 0 17 6 19 13 4 9 6 9 6 0 1 -9 8 -10 26 -3 29 11 58 3 48 -14 -3
-6 3 -2 14 9 11 11 18 24 16 28 -6 10 35 47 52 47 12 0 45 31 45 42 0 6 -49 6
-51 1z"/>
<path d="M1663 9694 c-18 -8 -33 -20 -33 -28 0 -8 -6 -17 -12 -19 -8 -3 -6 -6
4 -6 10 -1 22 -10 28 -21 6 -11 21 -20 34 -20 26 0 61 -33 52 -49 -4 -5 -2
-12 4 -16 6 -4 7 -11 4 -17 -5 -7 -1 -9 9 -5 10 3 18 2 18 -3 1 -6 3 -14 4
-20 1 -5 3 -17 4 -25 0 -9 8 -15 18 -13 25 4 28 -28 5 -66 -24 -40 -21 -47 16
-37 19 5 28 16 33 37 11 47 28 84 39 84 6 0 8 5 5 10 -3 6 -2 10 4 10 5 0 12
-4 15 -9 4 -5 16 -4 30 2 22 10 22 13 9 33 -8 12 -14 46 -15 75 0 70 -15 83
-83 69 -41 -9 -96 3 -123 25 -17 14 -31 25 -33 24 -2 0 -19 -7 -36 -15z"/>
<path d="M2732 9304 c-7 -8 -12 -20 -11 -27 1 -6 1 -21 0 -31 -1 -19 -1 -19
-18 0 -10 11 -28 19 -40 18 -13 -1 -23 3 -23 9 0 6 -2 8 -5 5 -3 -3 -1 -16 4
-30 9 -23 7 -25 -20 -25 -16 0 -34 -4 -40 -10 -7 -7 4 -10 34 -8 47 2 47 -6 2
-34 -19 -11 -19 -12 3 -6 25 7 29 -3 7 -19 -12 -8 2 -11 60 -10 79 1 114 16
95 40 -7 7 -9 30 -5 53 4 29 2 42 -9 48 -7 4 -15 15 -17 25 -3 14 -6 14 -17 2z"/>
<path d="M8650 9193 c-51 -17 -59 -25 -53 -57 5 -26 -7 -37 -62 -55 -48 -16
-65 -29 -65 -48 0 -11 8 -13 38 -9 20 4 52 2 71 -4 19 -5 44 -7 56 -4 43 11
104 174 70 188 -6 2 -31 -3 -55 -11z"/>
<path d="M6940 9111 c-20 -39 -12 -75 28 -114 39 -38 72 -48 72 -22 0 9 9 26
21 38 23 25 20 68 -8 99 -23 26 -99 25 -113 -1z"/>
<path d="M8012 9091 c-11 -6 -10 -11 3 -24 15 -15 14 -18 -17 -37 -20 -12 -43
-19 -58 -16 -14 3 -59 -2 -100 -11 -103 -22 -469 -22 -521 0 -30 12 -39 13
-62 1 -15 -8 -32 -24 -38 -35 -16 -30 5 -41 61 -31 25 4 74 6 110 5 36 -1 98
-2 138 -2 49 0 72 -4 67 -11 -3 -5 -1 -10 4 -10 6 0 11 -9 11 -21 0 -23 15
-21 86 12 31 14 52 18 82 13 32 -5 47 -2 70 14 20 15 62 25 145 36 64 9 131
23 148 31 29 16 30 17 14 35 -9 10 -36 25 -59 33 -22 8 -48 18 -56 21 -8 3
-21 2 -28 -3z"/>
<path d="M2963 8970 c-3 -13 -14 -20 -29 -20 -13 0 -24 -4 -24 -10 0 -5 7 -10
15 -10 8 0 15 -5 15 -11 0 -6 -7 -8 -16 -5 -9 3 -12 2 -9 -5 4 -6 14 -8 22 -5
11 4 13 2 10 -9 -4 -8 -2 -17 4 -20 5 -4 6 -11 3 -17 -5 -7 -1 -9 9 -5 11 4
14 2 10 -9 -3 -7 0 -14 6 -14 6 0 11 5 11 10 0 6 5 10 10 10 6 0 10 -9 10 -20
0 -22 15 -27 26 -9 3 6 1 14 -5 18 -8 5 -5 13 9 26 11 10 20 28 20 41 0 13 5
26 10 29 6 3 10 1 10 -4 0 -6 5 -11 10 -11 7 0 7 7 0 21 -9 16 -14 18 -25 9
-16 -13 -35 -5 -35 13 0 7 4 6 11 -3 9 -13 10 -13 6 0 -2 8 -13 15 -24 16 -12
1 -29 4 -38 8 -12 4 -18 0 -22 -14z"/>
<path d="M8684 8954 c-10 -15 -43 -39 -74 -53 -100 -49 -157 -126 -112 -150
12 -6 30 -11 41 -11 16 0 21 -6 21 -25 0 -16 -6 -25 -15 -25 -19 0 -21 -60 -3
-78 29 -29 75 1 70 45 -6 39 20 83 53 92 17 4 38 4 47 0 9 -5 27 -9 39 -9 19
0 21 4 16 30 -4 16 -2 32 4 35 5 4 9 12 8 18 -6 53 2 76 36 96 19 11 35 24 35
29 0 5 -26 12 -57 15 -32 3 -66 8 -75 12 -11 5 -22 -2 -34 -21z"/>
<path d="M9880 8936 c0 -8 -5 -16 -12 -18 -6 -2 -12 -21 -12 -41 -1 -20 -4
-37 -9 -37 -4 0 -5 -11 -1 -24 3 -13 1 -33 -5 -44 -9 -17 -7 -20 19 -26 17 -3
50 -3 75 1 l45 6 -7 41 c-3 22 -9 43 -13 46 -4 3 -10 23 -14 44 -4 21 -14 45
-21 52 -18 18 -45 18 -45 0z"/>
<path d="M3725 8880 c-4 -6 -4 -14 -1 -17 3 -3 -2 -12 -12 -20 -9 -8 -12 -16
-7 -19 10 -4 4 -112 -10 -166 -9 -35 15 -75 47 -80 12 -2 28 -14 35 -28 l13
-25 0 24 c0 14 -9 35 -21 47 -11 12 -25 39 -31 61 -13 48 -22 153 -13 153 4 0
36 -28 72 -62 137 -132 133 -128 133 -103 0 7 7 18 15 23 13 7 1 21 -57 73
-40 35 -92 83 -115 107 -26 27 -44 39 -48 32z"/>
<path d="M5880 8847 c0 -8 24 -35 53 -59 28 -23 68 -58 87 -77 29 -28 31 -32
13 -27 -34 11 -28 1 14 -26 39 -23 116 -37 95 -16 -7 7 -7 16 0 27 19 31 -72
145 -115 146 -7 0 -27 8 -45 18 -38 21 -51 17 -27 -7 15 -15 14 -16 -9 -16
-15 0 -33 10 -45 26 -14 18 -21 22 -21 11z"/>
<path d="M6807 8806 c-15 -14 -27 -29 -27 -34 0 -10 31 -39 37 -34 10 7 25 -1
47 -25 20 -21 28 -24 39 -14 13 10 16 4 22 -39 5 -36 13 -53 28 -61 33 -18 45
9 40 93 -4 78 -18 100 -54 91 -20 -6 -60 10 -90 34 -13 11 -20 9 -42 -11z"/>
<path d="M9675 8600 c-10 -11 -23 -19 -29 -18 -19 3 -90 -14 -104 -25 -9 -7
-16 -7 -24 1 -7 7 -16 12 -22 12 -6 0 -5 -5 2 -12 7 -7 12 -22 12 -35 0 -13 6
-26 13 -28 11 -4 91 -13 129 -14 27 -1 18 -80 -11 -99 -50 -34 -8 -56 50 -27
49 26 69 48 69 77 0 33 32 58 75 58 18 0 37 8 48 20 9 11 13 20 8 20 -5 0 -26
16 -46 36 -33 32 -42 36 -76 31 -29 -4 -39 -2 -39 9 0 21 -34 17 -55 -6z"/>
<path d="M6779 8589 c-13 -13 -18 -27 -14 -37 4 -9 9 -45 10 -79 3 -69 16 -93
51 -93 12 0 26 -4 29 -10 3 -5 13 -10 22 -10 11 0 14 6 8 23 -3 12 -8 29 -9
37 -1 8 -14 27 -29 42 -15 15 -27 34 -27 42 0 24 20 29 40 11 19 -18 50 -15
50 5 0 16 -78 90 -95 90 -8 0 -24 -9 -36 -21z"/>
<path d="M3845 8508 c-11 -7 -24 -17 -30 -25 -7 -9 -28 -12 -67 -9 -38 2 -58
-1 -58 -8 0 -7 -3 -6 -8 1 -6 9 -12 7 -25 -7 -9 -11 -22 -20 -29 -19 -10 0
-10 2 0 6 14 6 16 33 2 33 -5 0 -10 6 -10 14 0 9 -7 12 -20 9 -22 -6 -28 -39
-8 -45 7 -3 11 -21 10 -46 -1 -32 3 -44 20 -56 29 -20 32 -15 18 29 -13 40
-12 44 16 49 11 3 32 9 47 15 37 14 107 14 107 0 0 -7 10 -9 28 -5 l27 6 -28
-22 c-16 -13 -57 -49 -90 -82 l-62 -59 80 67 c51 43 86 65 97 62 20 -5 21 6
10 66 -6 33 -9 36 -27 26z"/>
<path d="M3417 8494 c-4 -4 -7 -19 -7 -34 0 -40 -11 -43 -31 -10 -18 29 -49
41 -49 19 0 -7 16 -27 36 -46 20 -19 33 -37 30 -41 -4 -4 -15 4 -25 17 -12 16
-21 20 -25 12 -4 -6 -1 -11 6 -12 7 0 3 -5 -9 -11 -27 -13 -31 -30 -5 -22 14
5 14 3 -3 -11 -20 -17 -20 -17 3 -12 12 3 20 1 16 -4 -3 -5 -13 -9 -22 -9 -11
0 -13 -3 -5 -11 8 -8 17 -8 31 0 29 16 75 14 66 -1 -6 -10 -4 -10 7 0 7 6 23
12 36 12 17 0 23 6 23 21 0 16 5 20 20 16 14 -4 25 4 40 31 17 28 23 33 31 21
7 -11 9 -11 9 -1 0 7 -7 20 -15 29 -8 8 -13 19 -10 24 4 5 -7 9 -23 9 -17 0
-32 -6 -36 -15 -3 -9 0 -15 8 -15 14 0 30 -45 22 -59 -3 -5 -17 -6 -31 -4 -14
3 -22 10 -18 16 4 6 -2 8 -14 5 -18 -5 -23 2 -35 44 -7 27 -17 46 -21 42z"/>
<path d="M547 8343 c-27 -4 -29 -7 -22 -41 3 -20 13 -42 21 -48 8 -6 14 -23
14 -37 0 -20 9 -31 40 -48 22 -12 42 -31 46 -41 6 -20 26 -23 54 -8 19 10 47
-11 36 -28 -3 -6 1 -15 9 -22 19 -16 19 -29 -1 -51 -16 -17 -15 -19 12 -29 16
-5 37 -15 46 -20 25 -14 47 -12 64 5 20 20 83 19 104 0 10 -9 33 -18 52 -21
52 -9 59 20 16 57 -18 16 -37 28 -41 29 -17 0 -56 56 -57 80 0 28 -33 84 -43
74 -15 -15 -125 -11 -161 5 -36 17 -96 96 -96 126 0 8 -9 15 -19 15 -11 0 -25
2 -33 3 -7 2 -26 2 -41 0z"/>
<path d="M2009 8303 c-32 -27 -37 -54 -14 -73 8 -7 15 -18 15 -26 0 -7 9 -16
20 -19 11 -3 20 -10 20 -15 0 -11 52 10 62 25 11 15 5 105 -7 114 -26 21 -67
18 -96 -6z"/>
<path d="M9465 8240 c-3 -5 -15 -10 -26 -10 -10 0 -19 -4 -19 -9 0 -5 -9 -12
-19 -16 -28 -9 -36 -37 -14 -53 13 -9 18 -26 17 -62 0 -30 4 -50 10 -50 6 0
33 23 60 51 43 44 47 53 33 61 -9 5 -17 17 -17 27 0 11 -7 21 -15 25 -8 3 -15
10 -15 16 0 5 7 10 15 10 8 0 15 5 15 10 0 6 -4 10 -9 10 -6 0 -13 -4 -16 -10z"/>
<path d="M9140 8210 c-6 -12 -8 -30 -4 -42 3 -12 7 -42 8 -67 2 -41 15 -87 36
-131 9 -19 116 -22 113 -2 -2 6 5 12 14 12 11 0 5 11 -22 34 -23 21 -36 40
-32 49 3 8 1 19 -5 25 -12 12 -1 52 15 52 7 0 27 14 45 30 18 17 37 30 43 30
5 0 9 7 9 15 0 20 -31 19 -69 -2 -29 -17 -33 -17 -79 0 -61 21 -59 21 -72 -3z"/>
<path d="M1817 8196 c-10 -14 -17 -39 -17 -56 0 -25 8 -35 46 -60 25 -16 51
-27 57 -24 7 2 22 20 34 38 22 34 22 34 3 59 -11 14 -20 30 -20 35 0 6 -16 10
-36 9 -19 -1 -39 5 -43 12 -6 9 -12 5 -24 -13z"/>
<path d="M9820 8209 c0 -4 14 -9 30 -12 29 -6 30 -9 30 -60 0 -29 -5 -58 -10
-63 -7 -7 -3 -17 10 -32 26 -28 41 -28 64 0 15 17 16 25 7 40 -9 15 -8 23 4
41 21 30 19 50 -9 74 -18 16 -27 18 -35 10 -9 -9 -14 -9 -19 0 -8 12 -72 14
-72 2z"/>
<path d="M3390 8090 c0 -16 -7 -20 -36 -20 -27 0 -37 -5 -41 -20 -8 -29 -23
-25 -36 10 -12 31 -27 40 -27 17 0 -7 6 -25 12 -39 11 -22 18 -26 40 -21 23 4
29 1 37 -20 12 -31 50 -41 101 -26 l39 12 -24 42 c-14 23 -25 51 -25 63 0 15
-6 22 -20 22 -13 0 -20 -7 -20 -20z"/>
<path d="M2088 8077 c-7 -7 -33 -19 -57 -27 -29 -9 -59 -30 -85 -59 -23 -25
-49 -52 -58 -60 -40 -35 -9 -110 47 -114 22 -1 32 4 40 20 7 17 15 21 30 17
11 -4 22 -11 23 -15 4 -11 33 -11 49 -1 6 4 14 19 18 34 8 32 -14 43 -63 29
-29 -9 -32 -8 -32 14 0 18 7 24 33 29 18 3 52 20 74 36 39 29 40 31 29 65 -12
39 -29 50 -48 32z"/>
<path d="M2325 8025 c-22 -8 -48 -15 -57 -15 -22 0 -48 -27 -48 -51 0 -10 7
-19 15 -19 8 0 15 -7 15 -15 0 -8 20 -24 44 -35 25 -11 48 -24 51 -30 9 -14
65 -12 69 3 19 71 21 97 12 132 -13 45 -38 52 -101 30z"/>
<path d="M4660 8031 c0 -5 15 -21 33 -36 138 -116 157 -152 104 -201 -15 -14
-27 -29 -27 -34 0 -15 43 -12 65 4 20 14 22 14 150 -71 35 -23 67 -38 70 -34
3 5 -1 12 -7 14 -8 3 -5 6 5 6 10 1 28 -4 40 -10 30 -14 -87 97 -132 125 -20
13 -45 33 -55 45 -25 27 -39 27 -31 -1 5 -20 3 -19 -17 7 -13 16 -23 33 -23
36 0 4 -19 27 -42 51 -22 23 -55 58 -72 76 -29 30 -61 43 -61 23z"/>
<path d="M9227 7831 c-31 -31 -57 -62 -57 -68 0 -7 -4 -13 -8 -13 -5 0 -33
-22 -63 -50 -30 -27 -65 -53 -79 -56 -14 -4 -37 -21 -51 -38 -23 -26 -32 -30
-68 -27 -38 2 -42 0 -62 -33 -12 -20 -32 -39 -45 -42 -20 -5 -23 -11 -18 -28
10 -32 21 -41 37 -27 8 6 21 9 29 6 11 -4 18 2 22 18 14 57 75 100 90 62 7
-19 46 -20 46 -1 0 8 15 24 34 35 19 12 37 32 40 45 3 14 22 34 41 46 19 12
35 25 35 28 0 4 14 22 30 40 24 26 35 31 56 26 26 -7 27 -18 8 -86 -5 -15 0
-17 26 -12 17 4 44 18 59 33 15 14 38 33 50 42 20 15 21 19 9 38 -7 12 -18 21
-24 21 -13 0 -57 67 -57 88 -1 22 -21 10 -80 -47z"/>
<path d="M8852 7762 c-13 -2 -31 -17 -40 -33 -10 -16 -20 -29 -24 -29 -33 0
48 -57 93 -65 29 -6 60 12 53 30 -4 9 0 15 10 15 31 0 18 23 -34 60 -21 15
-45 24 -58 22z"/>
<path d="M4269 7701 c-1 -9 -1 -19 0 -23 0 -5 -6 -8 -14 -8 -16 0 -16 -20 0
-32 6 -4 1 -8 -10 -8 -17 0 -17 -2 -5 -10 17 -11 14 -12 -44 -14 -32 -1 -48
-21 -19 -23 67 -4 140 -27 155 -47 9 -13 34 9 41 34 3 11 -1 21 -9 24 -25 9
-17 55 11 66 26 10 26 9 -2 59 -2 2 -8 -1 -16 -7 -8 -7 -26 -8 -50 -2 -31 7
-37 5 -38 -9z"/>
<path d="M3013 7700 c-25 -10 -38 -48 -29 -78 5 -14 -1 -26 -20 -41 -15 -12
-31 -21 -35 -21 -21 0 -89 -95 -89 -123 0 -4 12 -19 26 -32 26 -24 64 -34 64
-16 0 5 13 11 30 14 17 4 36 18 47 34 9 15 25 36 35 46 10 10 18 32 18 52 0
28 4 35 20 35 11 0 25 9 32 20 7 11 21 20 30 20 14 0 18 8 18 39 0 37 -1 39
-37 44 -21 3 -49 8 -63 11 -14 3 -35 1 -47 -4z"/>
<path d="M4542 7653 c-32 -33 -74 -55 -93 -50 -27 7 -24 -12 4 -23 20 -9 20
-10 2 -9 -11 1 -25 1 -31 0 -18 -2 -76 -65 -64 -69 5 -2 10 -12 10 -23 0 -10
4 -19 8 -19 5 0 14 -11 21 -24 17 -31 62 -41 68 -15 6 21 23 26 23 7 0 -9 4
-8 10 2 5 8 10 32 10 53 0 34 2 38 20 32 26 -8 26 10 1 32 -13 11 -17 21 -11
32 5 9 11 23 14 31 3 8 13 25 22 38 20 26 11 29 -14 5z"/>
<path d="M5350 7475 c0 -8 -4 -15 -8 -15 -5 0 -6 -15 -4 -32 3 -18 7 -27 9
-20 3 6 9 10 14 6 14 -8 11 -24 -6 -24 -8 0 -15 -7 -15 -15 0 -8 4 -15 9 -15
5 0 13 -9 16 -21 5 -15 10 -18 20 -9 10 9 21 7 42 -7 15 -9 31 -22 35 -28 5
-7 8 -7 8 1 0 5 -5 15 -12 22 -9 9 -8 12 6 12 10 0 31 -13 47 -29 25 -25 35
-29 64 -24 40 6 53 19 36 36 -8 8 -11 8 -11 -2 0 -7 -5 -9 -11 -5 -16 10 12
25 34 18 12 -4 17 0 17 15 0 23 -10 27 -26 11 -15 -15 -55 2 -74 30 -28 42
-62 80 -71 80 -17 0 -9 -17 21 -46 18 -18 26 -34 21 -42 -5 -9 -15 -4 -36 18
-16 16 -33 30 -38 30 -5 0 -18 11 -29 25 -27 35 -58 51 -58 30z"/>
<path d="M2465 7374 c-4 -16 -13 -44 -21 -62 -13 -28 -13 -34 0 -47 8 -8 19
-15 25 -15 6 0 11 -14 11 -31 0 -24 4 -30 15 -25 10 3 15 -1 15 -13 0 -10 7
-22 16 -25 23 -9 56 22 48 46 -3 10 -1 25 5 32 8 10 6 19 -8 37 -10 13 -22 34
-26 47 -4 13 -19 31 -34 40 -16 9 -28 21 -29 25 -1 22 -12 16 -17 -9z"/>
<path d="M1685 7362 c-11 -2 -24 -8 -29 -13 -6 -5 -18 -9 -27 -9 -10 0 -19 -5
-21 -12 -3 -7 -11 -9 -24 -3 -10 4 -23 7 -27 6 -5 -1 -33 -3 -62 -6 -62 -4
-101 -26 -107 -59 -5 -22 -1 -25 46 -29 44 -5 101 -3 101 3 0 7 66 6 71 -1 3
-5 14 -9 25 -9 18 0 20 -4 14 -30 -6 -25 -3 -31 16 -39 16 -5 28 -4 37 5 7 8
18 14 23 14 5 0 11 0 14 0 3 0 5 -3 4 -6 0 -4 5 -10 13 -15 18 -11 40 30 24
47 -8 9 -13 9 -18 0 -5 -6 -5 5 -1 24 15 72 10 99 -22 119 -16 10 -39 16 -50
13z"/>
<path d="M3531 7329 c-19 -8 -22 -14 -17 -37 4 -15 8 -34 10 -42 11 -64 43
-83 113 -66 24 5 43 12 43 16 0 4 18 15 39 25 42 19 66 60 50 86 -7 11 -9 11
-9 1 0 -7 -3 -11 -7 -9 -5 3 -30 8 -57 11 -27 4 -57 11 -67 16 -22 12 -66 12
-98 -1z"/>
<path d="M2775 7321 c-47 -15 -114 -54 -119 -68 -4 -8 6 -26 23 -44 26 -26 36
-29 93 -29 72 1 105 20 110 65 2 23 -4 33 -37 56 -22 16 -42 28 -45 28 -3 -1
-14 -4 -25 -8z"/>
<path d="M2178 7298 c-26 -41 -27 -55 -7 -74 16 -14 30 -16 90 -10 39 3 84 14
100 23 27 16 27 18 12 35 -28 31 -74 48 -128 48 -44 0 -55 -4 -67 -22z"/>
<path d="M5687 7279 c-4 -16 -11 -19 -26 -14 -16 5 -23 1 -30 -17 -5 -14 -5
-25 1 -29 6 -4 6 -9 -1 -14 -8 -4 -2 -14 16 -28 29 -23 57 -32 46 -15 -4 7 2
9 18 5 20 -5 22 -4 8 6 -13 10 -23 47 -12 47 12 0 47 -48 49 -67 2 -22 -1 -23
-52 -23 -48 0 -114 -21 -114 -36 0 -2 8 0 18 5 11 6 39 13 64 16 36 5 47 3 51
-9 4 -10 1 -16 -8 -16 -7 0 -17 -5 -21 -12 -5 -8 -2 -9 9 -5 28 11 19 0 -20
-24 -21 -13 -41 -28 -45 -33 -5 -7 -8 -7 -8 2 0 9 -5 10 -18 3 -26 -14 -50 2
-33 23 11 13 7 16 -24 22 -21 4 -40 2 -44 -3 -3 -5 -15 -13 -26 -17 -20 -7
-20 -8 2 -26 12 -9 19 -20 16 -24 -4 -3 1 -6 9 -6 9 0 21 7 28 15 9 11 15 12
25 2 14 -13 14 -25 1 -45 -7 -11 -4 -12 12 -3 11 6 32 11 46 11 14 0 28 5 32
12 5 8 2 9 -9 5 -16 -6 -16 -5 -1 19 10 15 23 23 33 19 16 -5 43 7 42 19 -3
18 0 26 16 41 14 14 14 18 2 26 -10 6 -7 9 14 9 23 0 27 -4 27 -29 0 -16 -6
-31 -12 -34 -7 -2 -5 -3 6 -1 11 2 20 -5 23 -17 4 -15 8 -17 19 -8 10 8 14 8
14 0 0 -6 7 -11 15 -11 9 0 12 -6 9 -15 -4 -8 -1 -15 5 -15 16 0 13 -36 -4
-54 -8 -8 -15 -23 -15 -32 0 -19 -115 -200 -135 -212 -15 -9 -29 -62 -16 -62
6 0 21 21 34 48 13 26 49 86 80 134 30 47 53 89 50 92 -8 8 19 32 45 40 24 8
28 21 11 32 -7 4 -9 22 -6 47 7 51 0 67 -28 67 -65 0 -101 36 -110 111 -6 41
-20 56 -38 40 -19 -15 -38 7 -30 37 3 12 3 22 0 22 -2 0 -7 -9 -10 -21z"/>
<path d="M6915 7270 c-4 -6 -2 -16 3 -23 5 -7 13 -25 17 -42 11 -39 9 -33 33
-87 11 -26 24 -64 27 -85 4 -21 13 -51 20 -68 7 -16 23 -74 35 -129 22 -97 22
-98 41 -79 19 19 19 20 -1 108 -16 66 -18 90 -10 95 7 5 9 16 5 29 -3 12 -11
19 -16 16 -5 -4 -12 2 -15 12 -9 26 -33 75 -46 95 -7 9 -9 21 -5 25 5 4 12 1
17 -7 8 -12 10 -12 15 2 8 21 -3 41 -20 34 -8 -3 -24 17 -42 52 -30 57 -46 71
-58 52z"/>
<path d="M4025 7200 c-3 -5 4 -22 15 -38 16 -22 55 -42 163 -84 78 -31 151
-59 162 -64 11 -4 31 -9 44 -10 13 -2 27 -8 31 -15 8 -12 13 -7 37 40 16 29
16 34 2 25 -6 -3 -21 -2 -32 4 -12 6 -56 23 -97 37 -41 15 -100 39 -130 53
-67 30 -83 37 -136 51 -50 13 -51 13 -59 1z"/>
<path d="M849 7135 c-3 -2 -20 -6 -39 -8 -53 -7 -90 -18 -90 -28 0 -5 10 -7
23 -4 31 7 56 -31 65 -102 4 -37 12 -58 20 -57 6 1 28 2 47 3 36 1 48 17 18
23 -18 3 -19 5 -26 136 -2 39 -7 49 -18 37z"/>
<path d="M7456 7087 c4 -7 12 -18 17 -25 6 -8 12 -21 13 -30 3 -28 51 -195 65
-228 8 -21 27 -39 56 -53 74 -36 112 -23 55 19 -33 24 -48 53 -96 181 -32 84
-41 99 -76 122 -23 14 -38 21 -34 14z"/>
<path d="M970 7011 c0 -10 -7 -24 -15 -31 -8 -7 -15 -18 -15 -24 0 -17 55 -56
79 -56 11 0 22 -4 25 -9 3 -5 17 -11 31 -13 32 -7 45 15 45 76 l0 46 -37 0
c-21 1 -49 7 -63 15 -34 20 -50 18 -50 -4z"/>
<path d="M5763 7004 c4 -4 -27 -18 -70 -30 -137 -38 -183 -57 -183 -76 0 -10
-5 -18 -11 -18 -6 0 -9 7 -5 15 10 28 -5 45 -38 44 -29 -2 -29 -2 -4 -6 39 -6
46 -33 8 -33 -21 0 -28 -4 -24 -14 3 -7 -2 -21 -11 -30 -9 -9 -12 -16 -6 -16
6 0 8 -6 5 -14 -5 -12 0 -13 31 -3 28 8 41 8 56 -1 10 -7 22 -12 26 -12 5 0 1
5 -7 10 -13 8 -12 10 3 10 17 0 24 15 10 23 -5 2 -3 2 4 1 6 -2 18 8 27 21 15
22 14 23 -9 20 -40 -4 -29 11 24 34 55 23 86 27 75 9 -4 -7 -3 -8 5 -4 6 4 9
11 6 16 -7 11 24 19 85 22 40 3 45 1 46 -19 1 -26 -20 -48 -36 -38 -5 3 -10 0
-10 -8 0 -9 -32 -46 -70 -83 -39 -37 -68 -70 -65 -72 3 -3 24 15 47 39 24 25
71 69 106 99 48 42 62 60 62 81 0 32 -18 48 -31 28 -7 -12 -12 -12 -31 0 -13
7 -19 10 -15 5z"/>
<path d="M6097 6895 c-10 -14 -26 -25 -35 -25 -12 0 -9 -6 11 -19 16 -10 27
-20 26 -22 -2 -2 20 -26 48 -53 29 -26 55 -57 59 -69 6 -20 7 -20 20 -2 18 25
18 14 -1 -21 -14 -27 -14 -30 7 -46 13 -9 31 -24 41 -32 9 -9 28 -16 42 -16
19 0 25 5 25 23 0 17 -11 30 -40 46 -44 24 -48 32 -25 51 26 22 -120 216 -158
210 -1 0 -10 -12 -20 -25z"/>
<path d="M7110 6750 c0 -5 8 -13 17 -19 14 -7 15 -12 5 -23 -6 -8 -8 -18 -4
-23 4 -4 -3 -4 -15 -1 -17 5 -22 2 -25 -14 -5 -33 -23 -24 -26 15 -3 27 -8 35
-23 35 -22 0 -42 -39 -28 -54 5 -5 -1 -18 -14 -30 -13 -13 -23 -35 -24 -56 -1
-19 1 -29 3 -22 8 17 27 15 20 -3 -4 -10 1 -15 15 -15 21 0 22 -9 4 -52 -5
-13 -2 -15 14 -11 22 6 25 -3 24 -69 -1 -16 3 -26 7 -23 4 3 8 23 8 46 1 23 3
44 6 47 3 3 6 -4 6 -16 0 -11 5 -24 10 -27 13 -8 13 -3 -1 32 -6 15 -13 43
-15 62 -2 19 -8 37 -13 41 -12 7 -3 50 10 50 5 0 9 -4 9 -10 0 -5 9 -10 20
-10 11 0 21 -6 22 -12 6 -51 4 -68 -8 -68 -18 0 -17 -10 1 -34 18 -24 20 -56
3 -56 -7 0 3 -11 22 -25 19 -14 39 -24 45 -22 5 2 10 21 10 43 0 32 -5 41 -25
51 l-25 12 28 -5 c16 -4 27 -2 27 5 0 6 -4 11 -10 11 -5 0 -10 6 -10 13 0 39
-22 86 -42 89 -12 2 -23 9 -26 17 -3 8 0 11 7 7 6 -4 11 -2 11 5 0 6 8 18 18
25 9 7 12 14 5 14 -6 0 -9 9 -6 21 3 11 0 31 -7 45 -13 24 -30 32 -30 14z"/>
<path d="M5527 6639 c-21 -21 -43 -39 -48 -39 -5 0 -9 -4 -9 -9 0 -5 -8 -7
-17 -5 -13 4 -21 -4 -29 -31 -9 -29 -8 -35 3 -35 8 0 11 -4 8 -10 -6 -9 -1
-11 35 -14 10 -1 14 -10 12 -31 l-3 -30 18 25 c10 14 16 34 14 45 -1 11 0 17
4 13 4 -4 14 0 22 8 8 8 19 12 24 8 5 -3 18 -2 30 1 19 7 20 7 2 21 -10 7 -26
14 -35 14 -11 0 -18 8 -18 18 0 28 23 72 38 72 7 0 10 5 7 10 -10 16 -17 12
-58 -31z"/>
<path d="M3852 6520 c-12 -12 -22 -28 -22 -36 0 -8 -13 -20 -28 -25 -38 -13
-70 -58 -63 -86 8 -27 48 -58 85 -65 31 -6 66 19 66 47 0 9 10 19 23 24 18 7
22 16 22 54 0 25 -4 43 -9 39 -5 -3 -6 5 -3 18 4 16 0 28 -11 36 -24 18 -35
17 -60 -6z"/>
<path d="M6206 6362 c-3 -6 -2 -13 4 -17 20 -12 10 -25 -15 -19 -30 7 -34 -11
-5 -26 23 -13 26 -45 5 -57 -22 -13 -7 -51 26 -69 16 -8 29 -18 29 -22 0 -4
18 -27 41 -52 32 -35 40 -50 35 -71 -5 -26 -4 -26 40 -23 36 2 44 0 44 -15 0
-9 -4 -21 -9 -27 -6 -5 -4 -16 4 -28 14 -18 15 -18 24 5 8 23 9 23 17 5 5 -13
3 -21 -4 -24 -7 -2 -12 -8 -12 -14 0 -5 8 -7 19 -3 20 6 46 -18 37 -34 -4 -6
14 -29 39 -52 49 -45 59 -66 23 -49 -17 8 -14 3 10 -19 18 -17 27 -31 22 -31
-6 0 -8 -4 -5 -10 3 -6 -1 -7 -9 -4 -9 3 -14 9 -13 13 4 15 -61 61 -77 55 -10
-4 -16 -1 -16 8 0 8 -12 25 -27 39 -23 20 -25 20 -10 2 24 -28 39 -90 23 -97
-6 -2 -4 -5 4 -5 8 -1 32 -10 52 -21 21 -11 44 -17 52 -14 10 4 35 -11 67 -39
71 -62 117 -86 128 -68 6 8 18 12 31 8 16 -4 20 -2 16 10 -15 38 -18 63 -7 63
6 0 12 -4 12 -10 1 -5 3 -14 4 -20 1 -5 3 -14 4 -20 0 -5 17 0 36 11 21 13 42
18 55 14 11 -3 20 -3 20 2 0 8 -52 29 -99 39 -34 7 -41 13 -41 33 0 24 -20 40
-46 39 -16 -2 -19 -7 -16 -26 l5 -25 -32 24 c-17 12 -31 28 -31 34 0 6 -13 18
-29 28 -31 18 -131 111 -131 122 0 3 -18 30 -40 60 -22 30 -40 63 -40 73 0 14
-9 21 -30 25 -46 10 -82 37 -77 59 3 10 0 18 -6 17 -38 -4 -47 2 -47 31 0 17
7 44 15 61 15 27 14 31 -5 51 -11 12 -20 27 -20 34 0 20 -36 58 -44 46z"/>
<path d="M4440 6243 c0 -16 -6 -23 -19 -23 -14 0 -19 -6 -18 -20 1 -11 8 -20
16 -20 12 0 12 -2 -1 -12 -21 -17 -31 -69 -18 -88 8 -11 9 -8 4 13 -8 34 3 35
16 1 7 -17 7 -31 1 -38 -6 -7 -6 -17 -1 -26 8 -12 13 -11 27 10 10 14 17 29
15 33 -3 11 24 37 39 37 7 0 5 -6 -6 -13 -20 -16 -5 -33 20 -23 24 9 20 101
-5 126 -11 11 -20 29 -20 40 0 11 -7 20 -15 20 -8 0 -15 -6 -15 -12 0 -9 -4
-8 -10 2 -8 12 -10 11 -10 -7z"/>
<path d="M6685 6204 c-18 -14 -18 -16 -2 -43 9 -16 17 -40 17 -53 0 -16 3 -19
9 -10 10 17 76 -111 68 -132 -3 -8 12 -32 34 -55 43 -45 49 -48 49 -28 0 14
49 42 58 33 2 -3 -7 -10 -22 -16 -26 -10 -32 -38 -7 -32 7 1 10 -1 7 -6 -3 -5
5 -19 19 -32 13 -12 21 -28 18 -36 -3 -9 0 -12 9 -9 9 4 29 -11 52 -39 53 -65
65 -76 84 -76 10 0 -2 17 -33 45 -43 38 -47 44 -28 45 18 0 22 5 19 23 -3 12
-5 29 -5 37 -1 10 -7 7 -21 -10 l-19 -25 5 25 5 25 -15 -25 c-8 -14 -15 -19
-16 -12 0 8 -5 10 -12 6 -8 -5 -8 -1 1 10 12 14 12 19 2 25 -9 6 -8 11 4 21
13 11 14 10 9 -5 -6 -14 -4 -16 6 -10 7 5 37 9 66 11 59 2 84 12 63 24 -10 7
-10 11 1 24 11 14 10 16 -4 10 -9 -3 -16 -1 -16 5 0 6 11 16 24 21 13 5 26 14
28 20 2 7 13 4 30 -9 l27 -21 6 21 c4 11 4 23 1 26 -3 4 -6 -1 -6 -11 0 -29
-17 -9 -24 28 -4 20 -16 41 -31 50 -26 17 -70 22 -60 6 3 -5 -7 -12 -22 -16
-42 -9 -50 -12 -30 -13 9 -1 17 -5 17 -10 0 -11 -41 -8 -61 5 -20 12 -40 14
-33 3 3 -6 -5 -19 -18 -31 -12 -11 -22 -25 -20 -30 2 -6 -4 -8 -13 -4 -9 3
-21 6 -27 6 -6 0 -5 7 3 17 9 11 10 14 2 9 -7 -4 -21 -2 -30 3 -16 9 -15 10 6
11 19 0 21 3 11 15 -6 8 -9 19 -5 25 3 5 -1 10 -10 10 -9 0 -21 12 -28 28 -20
44 -79 133 -84 128 -3 -3 -13 -1 -22 3 -11 6 -23 4 -36 -5z"/>
<path d="M4650 6146 c0 -28 15 -43 23 -24 3 7 6 3 6 -8 1 -28 -19 -45 -46 -38
-13 4 -22 0 -27 -11 -8 -23 -1 -32 33 -40 22 -5 28 -11 24 -25 -5 -20 17 -50
36 -50 6 0 11 7 11 15 0 8 6 15 14 15 8 0 16 10 18 23 2 17 9 21 28 19 14 -1
27 -7 28 -12 5 -15 32 -12 32 3 0 6 -14 25 -30 41 -22 22 -29 36 -26 55 2 14
5 30 5 34 1 5 11 5 22 2 16 -5 20 -3 17 6 -6 17 -47 13 -68 -6 -19 -17 -46
-20 -55 -5 -3 5 -15 15 -26 20 -16 9 -19 7 -19 -14z"/>
<path d="M5726 6154 c-4 -9 -5 -18 -4 -19 2 -1 44 -16 93 -33 50 -16 106 -37
125 -45 19 -8 55 -23 80 -32 110 -42 111 -42 98 -70 -8 -17 -22 -26 -47 -31
-59 -9 -69 -18 -28 -22 33 -3 38 -7 34 -22 -5 -18 -3 -18 18 -4 22 14 24 14
27 -8 4 -23 4 -23 18 5 7 15 19 27 27 27 7 0 13 7 13 15 0 9 7 18 15 21 22 9
18 38 -10 68 -29 32 -26 45 10 38 15 -2 25 0 25 7 0 6 -11 11 -23 11 -16 0
-28 9 -35 25 -7 15 -20 25 -33 25 -19 0 -21 -4 -16 -35 3 -19 2 -35 -3 -35 -5
0 -44 14 -87 31 -64 25 -278 99 -288 99 -2 0 -6 -7 -9 -16z"/>
<path d="M8565 5970 c10 -11 19 -33 21 -50 3 -24 0 -30 -15 -30 -11 0 -27 -3
-35 -6 -15 -6 -15 -8 1 -20 22 -17 7 -18 -37 -3 -31 11 -34 10 -61 -21 -16
-18 -29 -34 -29 -36 0 -2 11 -4 25 -4 18 0 25 5 25 18 0 17 10 19 113 18 92
-1 117 -4 130 -18 9 -9 17 -24 17 -32 0 -9 7 -16 15 -16 8 0 15 -9 15 -21 0
-16 5 -20 26 -17 22 3 29 13 49 73 13 39 22 71 20 73 -8 8 -44 -20 -50 -38
-10 -32 -31 -23 -27 11 1 4 -17 9 -38 13 -22 3 -40 10 -40 15 0 5 -9 11 -21
14 -11 3 -23 15 -26 26 -3 11 -8 19 -12 16 -4 -2 -20 9 -35 26 -30 32 -60 41
-31 9z"/>
<path d="M5105 5909 c-3 -4 1 -10 7 -12 7 -3 2 -6 -11 -6 -23 -1 -24 -2 -6
-21 10 -11 24 -20 32 -20 16 0 17 -12 2 -27 -8 -8 -8 -13 0 -17 8 -5 8 -13 1
-26 -8 -16 -8 -18 5 -14 20 8 20 -20 -1 -41 -9 -9 -14 -19 -10 -22 7 -8 35 27
36 45 0 16 27 16 32 0 3 -9 10 -8 22 5 10 10 26 15 36 12 11 -4 20 1 24 12 4
10 2 19 -3 21 -6 2 -11 12 -11 21 0 10 -11 23 -25 29 -14 7 -28 19 -31 27 -4
8 -14 15 -24 15 -10 0 -20 5 -22 12 -5 13 -46 19 -53 7z"/>
<path d="M4529 5735 c-1 -5 -1 -14 0 -19 3 -18 -21 -33 -74 -46 -47 -11 -55
-16 -55 -37 0 -19 5 -23 30 -23 23 0 31 -5 36 -25 3 -14 3 -36 0 -50 -5 -20
-13 -25 -36 -25 -17 0 -30 -4 -30 -10 0 -12 57 -37 104 -46 l34 -6 -19 57
c-17 52 -17 60 -4 86 10 19 23 29 38 29 32 0 49 -14 41 -34 -4 -10 1 -25 12
-37 12 -14 19 -36 19 -62 0 -51 29 -65 45 -22 10 27 3 50 -23 77 -19 19 -47
78 -47 100 0 10 -11 29 -23 41 -13 12 -29 31 -35 42 -6 11 -12 16 -13 10z"/>
<path d="M8940 5501 c0 -8 7 -23 17 -33 15 -17 15 -18 -2 -18 -14 0 -15 -3 -5
-15 19 -23 4 -35 -29 -24 -23 8 -37 7 -60 -6 -18 -9 -31 -11 -31 -5 0 18 -22
11 -46 -15 -13 -14 -26 -25 -29 -25 -4 0 -5 27 -4 60 1 33 -2 65 -8 71 -11 11
-13 3 -29 -113 l-6 -48 35 0 c60 0 95 11 100 32 5 18 13 20 84 17 85 -3 98 0
106 31 4 15 1 20 -11 18 -11 -2 -16 3 -14 15 2 9 -3 17 -10 17 -7 0 -22 12
-35 28 -13 16 -22 21 -23 13z"/>
<path d="M6614 5474 c3 -9 6 -17 6 -18 0 -2 12 -1 28 1 23 4 25 3 11 -9 -9 -7
-14 -17 -13 -23 7 -20 -14 -37 -47 -39 -18 -1 -34 -7 -37 -14 -2 -6 -10 -12
-18 -12 -9 0 -12 4 -9 10 4 6 -1 7 -11 3 -13 -5 -16 -3 -11 10 4 11 0 15 -14
14 -10 -1 -19 -6 -19 -11 0 -6 -5 -5 -11 1 -6 6 -18 9 -25 6 -8 -3 -14 0 -14
6 0 6 -15 11 -32 10 -18 0 -27 -3 -20 -6 6 -2 12 -11 12 -18 0 -7 4 -15 10
-17 16 -5 0 -46 -18 -43 -10 1 -11 0 -4 -2 6 -3 13 -17 13 -31 1 -18 3 -21 6
-9 4 14 8 15 18 7 10 -8 15 -8 20 1 6 8 10 7 16 -2 8 -12 10 -12 18 0 6 9 11
10 15 2 9 -14 27 -4 21 12 -7 19 7 33 40 41 28 7 29 7 10 -8 -20 -15 -20 -15
3 -9 27 6 29 -12 6 -45 -13 -19 -13 -22 0 -22 8 0 20 8 25 18 9 14 10 13 11
-10 0 -35 17 -36 30 -2 8 19 7 31 -2 41 -10 12 -7 13 18 8 16 -4 42 -11 58
-16 15 -5 32 -6 37 -3 5 3 9 -2 9 -10 0 -23 17 -20 23 4 3 11 11 20 19 19 10
0 10 -2 1 -6 -7 -2 -13 -11 -13 -19 0 -9 5 -12 10 -9 6 3 10 1 10 -5 0 -6 -7
-13 -15 -16 -17 -7 -61 -91 -52 -100 10 -10 27 6 27 25 0 10 6 24 14 30 12 10
13 8 9 -8 -8 -30 4 -26 39 11 25 27 38 33 74 33 29 0 44 4 44 13 0 10 8 9 30
-5 28 -16 30 -21 30 -75 0 -32 -5 -67 -12 -77 -15 -24 -4 -51 21 -51 27 0 47
36 25 44 -13 5 -15 21 -13 89 2 45 -1 89 -5 96 -17 27 -18 87 -3 100 22 18 10
42 -40 79 -25 18 -46 32 -47 30 -1 -2 -10 -21 -20 -43 -24 -56 -48 -70 -86
-50 -21 11 -29 12 -28 3 4 -18 -32 -22 -45 -4 -10 13 -19 14 -46 6 -45 -13
-52 -4 -20 24 28 24 24 32 -24 54 -37 16 -50 15 -43 -4z"/>
<path d="M8696 5288 c-3 -7 -7 -26 -11 -42 -12 -54 -46 -115 -61 -109 -10 4
-14 -3 -14 -23 -1 -26 -2 -27 -14 -11 -7 9 -21 17 -30 17 -12 0 -16 9 -16 34
0 19 5 38 10 41 15 9 12 38 -5 61 -12 16 -16 17 -24 4 -12 -17 -4 -33 12 -24
8 5 8 3 0 -7 -10 -10 -16 -10 -25 -1 -19 19 -33 14 -16 -5 12 -14 15 -42 14
-121 -1 -56 3 -102 8 -102 5 0 3 -7 -4 -15 -8 -9 -29 -15 -55 -15 -41 0 -43
-2 -48 -32 -2 -18 -4 -34 -3 -35 1 -2 17 3 34 9 43 17 62 0 39 -35 -14 -22
-14 -24 5 -36 18 -11 19 -10 13 8 -6 19 -5 20 22 6 15 -8 34 -15 41 -15 7 0
11 -4 8 -9 -3 -4 -7 -24 -10 -44 -14 -110 -31 -194 -43 -206 -12 -11 -11 -16
4 -34 18 -19 17 -19 -4 -13 -19 6 -23 3 -29 -21 -3 -15 -7 -34 -10 -40 -7 -23
7 -42 37 -48 16 -4 29 -10 29 -13 0 -13 -15 -28 -33 -35 -17 -6 -17 -7 0 -25
13 -13 19 -14 21 -5 2 7 10 13 18 13 8 0 17 7 20 15 8 19 59 19 113 0 22 -8
41 -10 41 -5 0 6 -27 18 -61 27 -55 15 -60 19 -56 40 3 19 1 22 -14 18 -13 -5
-20 0 -24 17 -16 66 42 272 75 265 8 -2 14 -9 13 -15 -2 -7 1 -12 6 -12 5 0
13 -9 16 -21 6 -17 14 -20 53 -17 40 3 47 6 50 26 2 15 -2 22 -12 22 -9 0 -16
-7 -16 -15 0 -8 -2 -15 -3 -15 -13 0 -67 33 -67 41 0 8 6 10 37 13 23 2 19 21
-4 24 -29 4 -29 17 1 47 16 16 22 31 19 45 -7 25 12 27 26 3 5 -10 12 -15 15
-12 4 3 -4 17 -17 31 -28 30 -58 92 -55 110 2 7 -5 12 -14 12 -10 -1 -18 2
-18 7 0 5 10 9 22 9 12 0 19 3 16 6 -4 3 1 25 9 50 13 38 13 46 0 58 -12 13
-17 5 -40 -62 -32 -98 -47 -162 -47 -206 0 -37 -16 -49 -27 -20 -11 29 20 169
58 258 21 49 42 92 46 95 8 5 8 40 2 86 -3 18 -18 20 -23 3z"/>
<path d="M7477 5260 c4 -14 8 -45 8 -70 0 -39 -3 -45 -22 -48 -15 -2 -31 10
-58 45 -46 60 -61 69 -81 49 -9 -9 -24 -21 -34 -26 -20 -11 -50 -4 -50 11 0 5
-4 9 -10 9 -16 0 -32 -41 -26 -66 7 -27 31 -32 40 -9 3 8 13 14 23 14 16 -1
17 -2 1 -6 -13 -3 -15 -9 -9 -21 5 -9 13 -30 17 -46 11 -36 30 -44 39 -17 3
12 11 21 17 21 5 0 25 7 44 16 28 13 37 14 50 4 8 -7 13 -19 10 -27 -3 -7 1
-13 9 -13 8 0 15 -5 15 -11 0 -8 4 -8 13 -2 18 13 27 11 74 -22 23 -17 42 -38
43 -48 0 -14 4 -16 17 -9 20 12 67 -1 89 -23 13 -12 15 -27 10 -61 -3 -28 -2
-44 5 -44 6 0 26 -7 45 -16 19 -9 37 -14 40 -11 10 10 -50 127 -68 133 -10 3
-18 12 -18 21 0 8 -9 27 -20 41 -18 23 -19 27 -5 34 28 16 17 38 -19 38 -24 0
-38 7 -49 23 -20 28 -111 126 -102 110 14 -27 -6 -11 -26 20 -17 26 -19 27
-12 7z"/>
<path d="M9796 4814 c-20 -11 -31 -13 -39 -5 -6 6 -21 11 -33 11 -55 0 -60
-75 -7 -100 20 -9 31 -20 28 -29 -3 -7 0 -20 6 -27 9 -11 9 -17 0 -28 -9 -11
-3 -21 29 -49 43 -36 55 -63 37 -84 -19 -24 40 -14 71 12 17 14 33 25 37 25 3
0 22 12 41 27 34 25 35 28 32 87 -3 53 -6 62 -26 71 -26 11 -37 43 -28 79 6
23 4 23 -57 24 -39 1 -73 -5 -91 -14z"/>
<path d="M5454 4785 c-3 -8 -3 -18 0 -23 9 -14 -19 -33 -38 -26 -12 4 -16 0
-16 -15 0 -11 -9 -25 -20 -31 -11 -6 -18 -15 -15 -19 3 -5 -3 -12 -12 -15 -17
-7 -7 -18 71 -81 13 -10 22 -23 20 -27 -5 -8 17 -12 53 -9 12 1 24 -3 28 -9
10 -16 29 -12 43 11 12 19 11 20 -7 14 -21 -6 -91 21 -91 36 0 12 56 39 65 31
4 -4 5 10 1 31 -6 32 -4 37 12 37 13 0 19 -6 18 -17 -2 -25 41 -30 47 -6 4 14
5 13 6 -4 1 -16 7 -23 20 -23 50 0 60 -36 21 -78 -17 -18 -17 -21 -2 -36 15
-15 15 -18 -1 -45 -25 -43 -22 -55 13 -48 24 5 28 3 23 -10 -4 -11 -2 -14 8
-11 8 2 15 15 17 29 2 13 10 29 18 35 7 6 16 30 19 53 5 37 3 41 -16 41 -20 0
-21 1 -6 18 14 16 12 19 -29 47 -24 17 -44 33 -44 38 0 4 -6 7 -14 7 -16 0
-26 21 -26 57 0 20 3 23 13 14 10 -8 17 -7 25 1 8 8 5 16 -13 30 l-25 19 -31
-35 c-34 -39 -56 -45 -66 -18 -16 44 -58 67 -69 37z"/>
<path d="M6835 4643 c4 -21 13 -41 20 -46 8 -4 24 -22 36 -40 21 -30 22 -31 2
-14 -14 13 -23 15 -28 7 -5 -8 -10 -8 -20 0 -17 14 -29 -3 -20 -29 3 -10 -1
-24 -10 -31 -9 -7 -15 -8 -15 -2 0 6 6 13 13 16 6 2 3 4 -8 4 -11 -1 -29 0
-39 0 -18 2 -18 3 -1 22 21 23 4 28 -19 5 -8 -8 -19 -15 -25 -15 -18 0 -12
-11 23 -45 19 -18 32 -35 29 -39 -4 -3 3 -6 15 -6 12 0 22 -5 22 -10 0 -6 -12
-10 -27 -9 -36 1 -158 -9 -248 -22 -38 -5 -101 -12 -140 -15 l-70 -6 -33 36
c-18 20 -38 36 -45 36 -7 0 -18 9 -25 20 -6 11 -22 19 -35 19 -12 -1 -37 2
-54 6 -39 9 -41 0 -9 -39 20 -24 29 -28 56 -23 19 4 29 3 25 -3 -3 -6 -13 -10
-21 -10 -11 0 -13 -6 -8 -22 4 -13 7 -33 6 -45 -2 -21 2 -22 46 -18 26 2 39 2
29 -1 -18 -5 -17 -7 3 -21 19 -14 26 -14 58 0 62 25 112 35 227 47 61 6 135
14 165 17 l55 6 -33 -37 c-33 -38 -45 -69 -17 -46 21 18 19 7 -5 -20 -15 -17
-20 -36 -19 -64 2 -51 -30 -126 -65 -154 -24 -19 -29 -19 -56 -5 -16 8 -32 18
-35 24 -12 19 -27 8 -23 -16 6 -29 -6 -33 -21 -7 -8 14 -10 12 -8 -13 2 -25 8
-31 40 -40 l38 -11 -31 -29 c-32 -31 -39 -48 -15 -39 8 4 15 12 15 19 0 8 9
10 25 7 14 -2 25 -6 25 -8 0 -2 -11 -14 -25 -28 -27 -27 -33 -48 -12 -43 6 1
14 4 17 7 11 12 60 29 60 21 0 -5 9 -11 20 -14 11 -3 20 -1 20 4 0 5 11 11 25
15 30 7 31 12 8 31 -10 8 -12 11 -4 7 14 -7 14 -6 -8 38 -13 25 -10 35 27 125
22 54 46 98 54 99 7 0 18 2 23 4 6 1 22 1 38 0 20 -1 27 3 27 17 0 24 19 43
42 43 10 0 18 5 18 10 0 6 -4 10 -10 10 -5 0 -10 8 -10 18 0 14 -2 15 -9 2 -6
-8 -8 -17 -5 -21 5 -9 -46 -22 -54 -14 -4 3 -1 15 6 25 7 11 12 26 12 34 0 36
83 53 118 24 10 -9 16 -8 22 2 6 10 10 6 15 -16 11 -47 14 -54 25 -54 5 0 15
20 21 45 7 26 17 45 25 45 8 0 14 -4 14 -10 0 -5 14 -10 30 -10 39 0 38 12 -2
46 l-33 27 28 -5 c20 -4 30 0 38 13 5 11 17 19 27 19 28 1 140 59 117 61 -11
1 -25 3 -31 3 -7 1 -31 25 -54 54 -50 64 -62 70 -98 46 -34 -24 -162 -36 -162
-16 0 10 -8 12 -30 7 -27 -6 -31 -4 -46 34 -21 52 -39 54 -29 4z"/>
<path d="M7670 4606 c0 -7 -12 -22 -27 -31 -26 -17 -26 -19 -8 -26 11 -4 -3
-5 -32 -2 -39 4 -56 2 -67 -9 -8 -9 -13 -18 -11 -22 3 -3 2 -4 -2 -1 -3 3 -12
0 -20 -6 -10 -9 -13 -8 -13 4 0 8 6 18 13 20 6 3 3 6 -8 6 -11 1 -31 8 -43 17
-18 12 -26 13 -37 4 -12 -10 -15 -10 -15 1 0 12 -2 12 -9 1 -4 -8 -11 -13 -15
-13 -3 1 -16 1 -28 0 -22 -1 -22 -1 2 -8 14 -4 24 -14 22 -21 -2 -11 0 -11 11
-1 12 9 16 8 21 -4 3 -8 0 -15 -7 -15 -7 0 -13 -9 -13 -20 0 -11 6 -20 13 -20
7 0 13 5 13 10 0 6 4 10 10 10 17 0 0 -27 -25 -38 -16 -7 -23 -18 -21 -35 1
-20 4 -23 14 -15 10 8 17 7 30 -6 16 -17 16 -18 -5 -12 -12 4 -24 2 -28 -4 -3
-6 -11 -7 -17 -4 -7 4 -8 2 -4 -4 4 -6 12 -9 19 -6 8 3 12 -7 13 -32 0 -29 -3
-35 -18 -31 -10 3 -21 1 -24 -4 -3 -5 4 -9 16 -9 12 0 18 -4 15 -10 -3 -5 1
-10 9 -10 9 0 16 -4 16 -9 0 -5 -9 -7 -20 -4 -11 3 -20 0 -20 -6 0 -5 -8 -8
-17 -5 -15 5 -16 4 -3 -5 8 -6 24 -8 35 -4 18 5 18 5 2 -11 -20 -21 -21 -27
-4 -24 7 2 11 -6 9 -22 -2 -17 0 -21 6 -12 5 7 16 10 25 6 10 -3 17 -1 17 5 0
17 57 101 64 94 3 -3 6 -1 6 6 0 8 7 10 20 6 12 -4 20 -2 20 6 0 9 3 9 15 -1
8 -6 19 -9 25 -5 14 9 13 -8 -2 -24 -11 -11 -10 -12 1 -6 10 6 12 2 7 -16 -7
-23 -6 -23 6 -4 16 24 43 33 35 10 -4 -9 -1 -15 9 -15 8 0 12 -4 9 -10 -3 -5
-4 -10 -1 -10 11 0 36 60 36 87 0 21 3 24 10 13 5 -8 12 -11 16 -7 4 4 2 13
-4 19 -7 7 -12 17 -12 23 1 5 10 -1 20 -14 11 -13 20 -19 20 -13 0 5 20 -10
45 -35 25 -24 45 -52 45 -63 0 -22 -22 -39 -28 -22 -2 7 -8 12 -13 12 -15 0
-10 -46 8 -85 13 -27 23 -35 44 -35 15 0 31 5 34 10 3 6 14 10 23 10 9 0 26 7
37 16 16 12 18 18 7 34 -6 11 -12 27 -12 35 0 9 -4 13 -10 10 -12 -8 -13 5 0
25 5 8 12 11 16 7 4 -4 13 -2 20 4 9 7 19 7 33 0 17 -10 20 -7 26 20 5 23 9
28 16 18 7 -11 9 -10 9 4 0 9 5 17 12 17 6 0 3 6 -7 14 -11 8 -23 12 -27 10
-5 -3 -8 1 -8 10 0 8 -17 23 -37 33 -38 19 -62 47 -50 59 3 4 13 1 22 -6 12
-10 15 -10 15 3 0 16 -20 28 -58 34 -14 2 -21 0 -18 -6 9 -14 -32 -34 -60 -28
-15 2 -30 -3 -40 -14 -29 -32 -56 -23 -34 11 6 9 5 19 -3 29 -10 12 -7 13 25
7 35 -6 60 6 39 19 -6 3 -8 12 -4 20 3 10 -1 15 -12 15 -12 0 -15 5 -10 20 4
13 2 20 -7 20 -31 0 -67 26 -72 52 -6 28 -36 40 -36 14z"/>
<path d="M4886 4535 c-5 -14 4 -19 30 -16 6 1 19 -8 29 -19 11 -12 13 -20 6
-20 -7 0 -9 -5 -5 -12 4 -7 3 -8 -4 -4 -7 4 -12 14 -12 22 0 12 -4 13 -21 3
-12 -6 -30 -9 -40 -6 -10 3 -17 1 -13 -4 3 -5 0 -9 -5 -9 -6 0 -11 5 -11 10 0
6 -11 10 -25 10 -18 0 -29 -8 -37 -25 -10 -22 -9 -29 10 -48 17 -17 24 -19 34
-9 9 9 8 12 -7 13 -19 0 -19 1 0 9 31 13 37 12 30 -10 -5 -15 -2 -20 14 -20
11 0 23 -4 26 -10 8 -12 55 -13 55 -1 0 13 27 21 27 8 0 -7 4 -24 7 -38 6 -22
4 -27 -16 -32 -17 -5 -28 0 -44 20 -16 21 -24 24 -39 16 -10 -6 -26 -8 -36 -6
-15 4 -19 0 -19 -24 0 -48 -40 -85 -46 -42 -1 5 -2 14 -3 19 -1 13 -48 13 -56
0 -3 -5 3 -15 15 -22 25 -16 26 -28 3 -29 -11 0 -13 -3 -5 -6 6 -2 12 -11 12
-19 0 -9 5 -12 12 -8 7 4 8 3 4 -5 -5 -7 -16 -9 -28 -5 -18 5 -19 4 -7 -9 12
-12 17 -12 35 0 19 12 22 12 28 -2 3 -9 6 -25 6 -36 0 -10 7 -19 15 -19 9 0
15 9 15 25 0 14 4 25 9 25 5 0 9 -6 8 -12 -1 -48 4 -67 18 -62 8 3 17 14 20
25 8 25 30 24 55 -3 15 -17 23 -19 28 -10 6 9 16 9 43 1 38 -12 85 -23 170
-39 46 -8 62 -7 85 5 16 8 35 15 42 15 25 0 11 17 -25 29 -21 7 -63 35 -93 61
-53 47 -54 49 -27 50 32 0 37 17 5 22 -12 2 -23 9 -26 16 -3 10 5 13 31 11 62
-6 51 9 -12 16 -34 4 -64 11 -67 16 -8 14 85 11 146 -5 30 -8 56 -13 58 -11 9
8 -92 38 -156 45 -77 8 -123 30 -65 30 67 0 233 -49 233 -69 0 -5 11 -8 25 -7
26 1 36 16 11 16 -7 0 -46 15 -87 34 -41 19 -100 39 -132 45 -32 6 -62 13 -67
16 -5 3 -11 -4 -15 -15 -5 -16 -9 -17 -20 -7 -9 8 -9 14 -2 19 14 9 21 118 7
118 -5 0 -15 -9 -22 -20 -7 -11 -20 -20 -29 -20 -9 0 -24 9 -34 20 -21 24 -41
26 -49 5z"/>
<path d="M9872 4448 c-23 -28 -24 -64 -1 -104 13 -24 21 -55 21 -81 l-1 -42
54 0 55 1 0 54 c0 54 -6 64 -27 43 -17 -17 -53 -1 -54 24 -1 17 -2 18 -6 5 -5
-20 -23 -24 -23 -5 0 6 7 20 14 30 9 11 11 29 7 49 -7 35 -22 45 -39 26z"/>
<path d="M9318 4308 c-58 -12 -62 -29 -18 -90 21 -29 30 -53 30 -82 1 -37 2
-39 13 -21 7 11 18 20 26 20 8 0 19 15 26 34 12 36 21 44 68 61 30 11 38 35 8
25 -30 -9 -71 15 -71 42 0 26 -7 27 -82 11z"/>
<path d="M7064 4180 c-19 -19 -23 -20 -62 -6 -25 9 -44 11 -47 5 -4 -5 7 -12
24 -15 35 -7 39 -19 13 -33 -23 -12 -75 -112 -71 -135 3 -16 8 -14 36 14 17
18 36 29 42 25 6 -3 11 1 11 9 0 9 -4 16 -10 16 -5 0 -10 8 -9 18 0 10 3 12 6
5 7 -19 23 -16 23 5 1 13 4 12 14 -7 10 -18 15 -21 20 -10 3 8 4 -3 2 -23 -5
-40 12 -54 21 -18 3 11 9 17 14 14 12 -7 11 10 -3 41 -10 22 -8 29 15 53 31
32 34 47 11 56 -23 9 -28 8 -50 -14z"/>
<path d="M7160 4073 c-45 -13 -45 -14 -31 -23 11 -6 6 -12 -18 -24 -17 -9 -31
-20 -31 -25 0 -18 37 -17 59 1 18 14 27 16 38 7 7 -7 11 -20 8 -30 -4 -11 2
-23 17 -33 13 -9 17 -16 9 -16 -8 0 -12 -3 -9 -6 9 -8 48 19 48 33 0 19 24 21
44 4 18 -15 19 -15 13 7 -4 18 -2 22 9 18 47 -19 49 -19 27 3 -12 11 -29 21
-37 21 -8 0 -25 13 -38 29 -23 28 -74 44 -108 34z"/>
<path d="M8740 3921 c0 -19 -3 -21 -14 -12 -11 9 -12 6 -9 -14 3 -13 0 -38 -6
-55 -9 -26 -7 -34 9 -50 11 -11 20 -28 20 -38 0 -18 -33 -52 -50 -52 -6 0 -10
-4 -10 -8 0 -5 -14 -6 -31 -4 -28 4 -30 3 -21 -15 6 -11 18 -25 27 -33 12 -10
13 -16 4 -26 -8 -10 -8 -14 -1 -14 6 0 14 5 17 10 10 16 23 12 21 -6 0 -9 5
-19 13 -22 10 -3 13 2 9 22 -9 48 64 64 104 24 13 -13 36 -30 53 -39 16 -9 36
-30 45 -47 8 -17 20 -32 26 -32 6 0 21 -12 35 -26 13 -15 102 -100 196 -190
170 -161 174 -164 217 -164 25 0 48 -5 52 -11 5 -8 10 -6 16 5 5 9 16 16 23
16 19 0 19 14 0 30 -9 7 -13 22 -10 34 3 12 2 16 -1 9 -8 -18 -44 6 -44 29 0
19 -2 20 -48 22 -30 1 -122 72 -122 93 0 7 -6 13 -13 13 -7 0 -46 32 -86 70
-41 39 -69 70 -62 70 6 0 11 4 11 10 0 5 -7 7 -15 4 -15 -6 -64 42 -65 64 0 6
-6 12 -12 12 -21 0 -83 61 -80 77 2 11 -2 13 -17 8 -14 -4 -21 0 -26 15 -7 23
-25 27 -25 5 0 -8 -4 -15 -10 -15 -9 0 -15 41 -11 81 1 8 -10 21 -24 29 -14 7
-25 19 -25 27 0 7 -7 13 -15 13 -17 0 -21 46 -4 52 5 2 -1 14 -15 27 l-26 24
0 -22z"/>
<path d="M9815 3900 c-3 -11 -14 -27 -22 -36 -15 -14 -15 -23 -4 -76 11 -52
10 -62 -3 -77 -9 -10 -16 -23 -16 -30 0 -7 -6 -9 -12 -5 -7 4 2 -7 20 -25 38
-36 63 -38 125 -12 53 23 67 40 39 48 -15 4 -20 13 -20 34 1 16 5 32 10 35 4
3 -15 28 -42 56 -37 37 -50 58 -50 79 0 33 -16 39 -25 9z"/>
<path d="M5020 3880 c6 -11 24 -27 40 -35 29 -15 42 -45 19 -45 -5 0 -3 -10 5
-22 23 -33 20 -57 -8 -64 -13 -3 -27 -15 -30 -27 -7 -29 1 -34 19 -11 14 18
14 18 15 -3 0 -25 10 -29 28 -11 9 9 12 8 12 -5 0 -9 -7 -17 -16 -17 -8 0 -12
-5 -8 -11 4 -8 -1 -9 -17 -4 -21 7 -22 6 -7 -9 9 -9 24 -16 32 -16 9 0 16 -4
16 -10 0 -5 5 -10 11 -10 7 0 9 9 5 24 -5 20 -3 23 14 19 11 -3 20 0 20 6 0 9
5 9 20 1 20 -11 25 -5 21 28 -1 6 3 12 9 12 14 0 40 25 40 39 0 6 -7 11 -16
11 -11 0 -15 6 -11 20 3 11 1 20 -5 20 -6 0 -8 7 -4 15 7 19 1 19 -18 -1 -15
-14 -16 -14 -16 3 0 14 -2 15 -9 4 -8 -12 -12 -12 -26 2 -13 14 -14 23 -5 57
11 40 7 60 -11 60 -5 0 -9 -17 -9 -37 0 -24 -3 -33 -9 -25 -8 13 -47 37 -89
53 -20 8 -22 7 -12 -11z"/>
<path d="M9170 3860 c0 -5 7 -13 16 -18 9 -5 17 -21 17 -36 0 -20 6 -30 25
-37 14 -6 37 -21 50 -35 22 -21 31 -24 74 -19 29 4 57 14 68 25 24 24 46 26
54 4 11 -27 6 -82 -6 -87 -9 -3 -2 -15 19 -35 18 -17 35 -43 38 -59 3 -15 11
-35 16 -43 5 -8 16 -30 25 -48 11 -26 19 -32 32 -26 58 24 94 11 51 -19 -16
-12 -18 -19 -11 -33 5 -11 15 -31 23 -46 15 -33 25 -34 59 -8 14 11 31 20 38
20 6 0 12 7 12 15 0 9 7 18 15 21 11 5 12 9 2 25 -14 22 -4 43 35 72 23 17 30
18 62 6 26 -10 39 -10 47 -2 18 18 0 33 -41 33 -21 0 -41 4 -44 9 -4 5 -21 5
-42 -2 -31 -9 -38 -9 -49 6 -7 9 -18 17 -25 17 -7 0 -10 7 -6 16 4 11 2 15 -7
11 -17 -6 -79 41 -72 54 4 5 -2 9 -13 9 -21 0 -75 52 -78 77 -2 10 2 23 8 30
7 9 4 15 -13 23 -13 6 -36 18 -50 25 -35 19 -89 21 -154 5 -5 -1 -29 -2 -53
-1 -32 1 -49 8 -74 31 -32 31 -48 38 -48 20z"/>
<path d="M8283 3659 c3 -10 -1 -20 -8 -23 -7 -2 -15 3 -17 12 -3 10 -15 18
-27 19 -22 2 -22 1 -7 -22 9 -13 13 -31 10 -39 -4 -12 0 -14 21 -10 31 6 64
-27 65 -65 l0 -24 -24 24 c-43 43 -51 47 -64 33 -7 -8 -8 -15 -2 -19 6 -3 10
-1 10 6 0 8 4 8 15 -1 8 -7 12 -17 9 -22 -3 -5 2 -18 12 -29 14 -15 20 -17 27
-7 6 10 7 9 4 -2 -2 -8 -11 -14 -20 -12 -12 2 -15 -2 -10 -14 4 -11 3 -15 -5
-10 -24 15 -21 -16 4 -38 l28 -23 -32 -17 c-41 -21 -40 -26 1 -26 27 0 36 6
46 26 15 34 44 28 51 -10 l5 -29 17 37 c12 23 25 36 37 36 11 0 23 5 26 10 3
6 1 10 -6 10 -8 0 -8 4 1 15 10 12 10 15 -1 15 -10 0 -10 3 -1 12 10 10 15 10
21 0 6 -10 14 -4 30 22 18 28 29 36 52 36 33 0 39 16 9 25 -12 4 -31 -1 -48
-13 -33 -24 -72 -37 -72 -24 0 5 10 14 23 21 12 6 37 22 55 35 25 19 29 25 16
28 -14 2 -12 5 7 15 13 6 32 14 42 17 28 9 9 27 -21 19 -34 -8 -66 -38 -57
-53 5 -8 -3 -10 -26 -8 -30 3 -34 7 -35 33 -2 50 -4 51 -26 17 -15 -24 -26
-32 -39 -29 -11 3 -17 1 -14 -3 3 -5 0 -12 -6 -15 -5 -4 -8 -13 -5 -21 3 -8 1
-14 -3 -14 -15 0 -20 27 -8 39 9 9 8 14 -3 21 -12 8 -11 10 5 11 11 0 14 3 8
6 -9 3 -10 10 -4 21 8 15 3 17 -31 18 -34 1 -39 -1 -35 -17z"/>
<path d="M4722 3650 c-16 -13 -32 -17 -51 -14 -18 4 -39 -2 -63 -16 l-36 -21
12 -42 c8 -29 17 -42 29 -41 75 3 78 5 96 35 11 18 17 37 15 43 -2 7 5 21 16
33 36 40 23 57 -18 23z"/>
<path d="M8520 3478 l-20 -33 42 -8 c58 -11 97 -33 130 -70 31 -35 31 -36 -8
-43 -42 -8 -42 -14 0 -14 62 0 97 -23 206 -138 149 -158 159 -172 148 -201 -5
-16 -5 -28 2 -35 20 -20 10 -34 -25 -33 -19 1 -40 -4 -46 -10 -8 -8 -2 -10 22
-8 19 1 43 -2 54 -8 30 -14 85 -69 85 -84 0 -15 16 -17 25 -4 3 5 6 31 7 58 1
29 9 59 21 76 18 26 18 30 3 61 -19 40 -59 69 -73 55 -6 -6 -24 9 -50 43 -63
83 -73 101 -73 125 0 22 -3 25 -32 27 -19 1 -28 18 -28 52 0 40 -38 77 -76 72
-15 -2 -29 2 -31 10 -3 6 0 12 6 12 6 0 11 5 11 11 0 8 -4 8 -12 2 -36 -28
-49 -23 -107 38 -54 56 -60 60 -81 49 -19 -10 -27 -9 -51 9 l-29 22 -20 -33z"/>
<path d="M7955 3285 c-96 -47 -243 -101 -365 -135 -109 -30 -113 -29 -158 25
-7 8 -23 15 -37 15 -20 0 -23 -4 -19 -30 6 -34 -10 -40 -26 -10 -6 11 -7 20
-3 20 4 0 -2 6 -12 14 -14 10 -26 11 -43 5 -13 -5 -43 -9 -68 -9 -65 0 -53
-17 18 -25 86 -10 134 -41 67 -43 -47 -1 -219 -45 -219 -55 0 -5 10 -7 23 -3
12 3 49 11 82 17 33 6 75 15 94 21 21 6 36 7 40 1 3 -6 24 -13 45 -17 l40 -8
-85 -49 c-138 -80 -258 -135 -359 -163 -135 -39 -178 -43 -194 -21 -13 18
-106 39 -106 23 0 -5 7 -11 15 -14 8 -4 15 -14 15 -23 0 -11 -9 -7 -31 17 -16
17 -37 32 -45 32 -8 0 -13 4 -10 9 3 5 -2 12 -12 16 -11 4 -24 -2 -37 -17 -39
-45 -218 -54 -265 -13 -8 8 -33 15 -55 17 -35 3 -40 6 -43 30 -3 28 -28 56
-39 44 -4 -4 -2 -16 5 -27 17 -26 7 -42 -18 -29 -27 14 -38 12 -17 -4 16 -12
16 -15 2 -29 -13 -14 -13 -16 3 -20 10 -3 6 -5 -10 -6 -52 -2 -25 -31 29 -31
26 0 28 -11 8 -65 l-7 -20 17 20 c9 11 19 32 22 48 6 28 10 30 57 27 23 -1 28
1 22 15 -4 11 -2 15 6 13 7 -3 13 -13 13 -24 0 -14 -8 -20 -29 -22 -38 -5 -65
-30 -45 -43 8 -5 21 -9 29 -9 19 -1 53 -47 40 -55 -5 -3 -44 -4 -87 -1 l-78 5
27 -23 c27 -24 22 -46 -11 -46 -10 0 -4 -8 14 -20 25 -17 27 -20 10 -21 -19 0
-19 -1 -1 -8 11 -4 23 -16 26 -27 6 -16 8 -13 14 14 10 43 26 41 26 -3 0 -33
1 -35 21 -24 31 16 81 2 107 -31 18 -23 22 -37 16 -65 -7 -40 -12 -42 -40 -17
-26 24 -74 34 -74 16 0 -8 7 -14 15 -14 8 0 19 -9 25 -21 10 -17 7 -25 -12
-44 -53 -55 -60 -65 -55 -79 4 -10 20 -14 51 -14 25 1 43 5 40 10 -3 5 10 8
30 6 28 -2 33 -5 24 -15 -6 -8 -8 -16 -5 -19 3 -3 -1 -24 -9 -47 -10 -27 -11
-44 -4 -51 17 -17 11 -29 -7 -15 -15 12 -16 12 -10 -4 4 -11 2 -17 -6 -16 -25
3 -35 -1 -41 -18 -3 -10 -10 -28 -16 -40 -11 -27 -7 -29 15 -7 13 13 18 14 31
3 13 -10 17 -10 23 0 9 14 21 -17 21 -56 0 -30 20 -40 37 -18 7 11 13 13 13 7
0 -7 5 -12 10 -12 6 0 10 7 10 15 0 13 4 13 23 3 12 -7 25 -17 29 -22 3 -5 14
-2 23 8 21 21 41 16 37 -10 -2 -18 -2 -18 14 1 16 20 16 20 11 -2 -7 -29 12
-41 28 -19 12 15 15 15 43 -1 29 -17 30 -17 60 12 17 15 28 34 25 41 -3 7 5
28 18 45 l22 32 -24 18 c-20 16 -22 20 -9 29 13 9 7 14 -12 11 -5 0 -8 6 -8
15 0 10 -6 14 -14 11 -11 -4 -13 -1 -9 10 5 12 1 14 -14 9 -12 -4 -29 1 -44
12 -13 11 -37 21 -52 24 -24 5 -28 3 -24 -13 4 -15 0 -19 -24 -19 -19 0 -29 5
-29 15 0 9 -12 18 -30 22 -26 5 -30 10 -30 37 0 39 7 49 48 65 46 19 48 29 10
46 -31 14 -32 15 -10 21 27 8 41 52 21 65 -12 7 -12 9 0 9 9 0 12 8 9 25 -3
14 -1 28 3 31 12 7 11 44 -1 44 -5 0 -10 5 -10 11 0 8 4 8 13 0 10 -8 22 -3
48 19 41 35 52 37 45 8 -3 -13 2 -6 11 15 8 20 19 37 24 37 15 0 20 -39 10
-77 -8 -35 -20 -106 -36 -220 -3 -26 -1 -43 5 -43 5 0 10 14 10 31 0 17 7 79
16 138 12 84 22 115 45 150 15 24 26 48 22 54 -4 6 0 8 10 4 13 -5 22 3 35 31
15 33 26 40 104 69 96 36 148 45 155 26 3 -7 -9 -21 -26 -30 -17 -10 -35 -28
-41 -40 -5 -13 -15 -33 -20 -45 -6 -13 -9 -39 -8 -58 2 -31 -58 -237 -72 -250
-3 -3 -7 -25 -9 -50 -3 -48 -15 -70 -37 -70 -8 0 -14 -4 -14 -10 0 -5 5 -10
10 -10 6 0 10 -7 10 -15 0 -20 29 -19 51 1 12 11 25 13 41 8 33 -11 42 -11 51
1 4 6 10 5 17 -5 8 -13 10 -12 10 4 0 16 4 15 36 -9 31 -24 37 -25 52 -12 9 8
23 16 31 19 27 8 19 36 -15 54 -37 20 -40 24 -22 42 9 9 7 12 -9 12 -18 0 -22
8 -29 63 -5 34 -7 74 -6 90 3 27 -12 37 -22 15 -3 -7 -3 1 0 19 3 17 1 34 -4
37 -6 3 -13 -23 -16 -62 -10 -100 -22 -124 -60 -120 -28 3 -31 6 -28 33 6 56
74 246 86 240 6 -3 19 -8 29 -11 10 -4 17 -17 17 -31 0 -13 4 -22 9 -19 5 3 7
15 4 26 -3 11 0 20 6 20 6 0 11 16 11 35 0 19 5 35 10 35 6 0 10 -9 10 -21 0
-11 4 -17 10 -14 6 4 8 16 5 26 -5 16 -3 20 12 17 21 -4 20 12 -5 60 -10 19
-22 30 -30 27 -8 -3 -12 0 -9 7 2 7 13 12 23 11 10 -1 21 2 24 6 9 14 123 88
205 132 44 24 94 52 110 61 103 61 353 158 404 158 9 0 0 -10 -19 -22 -27 -17
-31 -23 -17 -26 21 -4 22 -16 2 -32 -9 -7 -14 -19 -11 -26 2 -6 -2 -20 -9 -31
-19 -24 -19 -53 0 -53 8 0 15 -8 15 -17 0 -14 2 -15 9 -4 7 11 10 11 17 0 6
-10 11 -2 15 26 4 22 10 50 14 63 6 19 3 24 -15 29 -16 4 -18 8 -9 14 7 4 19
3 26 -3 8 -6 14 -9 16 -7 21 38 27 52 27 71 0 24 9 30 118 91 48 26 61 46 36
54 -5 1 -49 -18 -99 -42z m-1455 -481 c9 -3 -5 -14 -35 -29 -63 -29 -45 -33
21 -3 51 22 134 32 134 15 0 -14 -61 -67 -71 -62 -4 3 -19 0 -33 -6 -20 -9
-29 -9 -41 1 -12 10 -16 9 -21 -4 -8 -22 -17 -20 -48 10 -21 22 -28 24 -41 14
-9 -8 -15 -8 -15 -2 0 6 5 14 10 17 6 4 8 11 4 16 -3 6 2 19 11 29 13 14 27
17 63 14 26 -3 54 -7 62 -10z"/>
<path d="M6990 3275 c6 -8 9 -19 5 -25 -3 -5 0 -10 7 -10 9 0 9 -3 -2 -10 -13
-8 -12 -10 3 -10 34 0 11 -25 -34 -36 -26 -6 -38 -13 -29 -16 12 -5 11 -7 -5
-13 -49 -17 -51 -18 -27 -22 20 -4 27 -14 23 -36 -1 -4 6 -10 14 -13 8 -3 12
-10 9 -15 -8 -13 -48 -11 -62 3 -9 9 -12 8 -12 -4 0 -25 25 -38 61 -33 26 4
30 3 14 -4 -11 -6 -14 -10 -6 -10 10 -1 11 -4 2 -15 -10 -11 -4 -15 28 -18 26
-2 42 1 45 9 3 6 2 13 -2 15 -10 4 -62 68 -62 76 0 11 58 34 77 30 27 -5 26
-26 -3 -41 -28 -15 -19 -32 10 -21 19 7 51 63 48 81 -2 7 5 9 17 6 11 -3 28 0
38 7 15 10 14 10 -10 5 -17 -3 -35 -1 -43 6 -11 9 -14 8 -15 -7 -1 -11 0 -23
1 -29 1 -5 -2 -6 -6 -2 -5 4 -7 25 -6 45 2 25 0 33 -6 23 -6 -7 -15 -10 -21
-6 -9 5 -9 10 0 21 9 11 9 18 -3 32 -8 9 -18 25 -21 35 -4 9 -14 17 -23 17
-13 0 -14 -3 -4 -15z"/>
<path d="M2652 3014 c-18 -8 -38 -12 -43 -8 -11 6 -49 -28 -49 -43 0 -15 -39
-86 -52 -94 -7 -4 -18 -4 -24 2 -6 5 -32 11 -58 14 -57 6 -60 -9 -15 -75 16
-25 43 -70 59 -100 15 -31 42 -70 59 -86 36 -35 54 -84 37 -100 -6 -5 -30 -10
-53 -11 -52 -2 -75 -14 -92 -46 -12 -22 -11 -27 8 -46 29 -29 64 -36 81 -16
11 13 10 18 -4 34 -14 15 -15 24 -6 40 14 28 21 27 50 -9 13 -16 38 -32 54
-36 35 -8 114 -87 157 -158 29 -48 31 -44 13 22 -4 13 -2 22 5 22 6 0 11 9 11
19 0 26 -38 53 -59 41 -23 -12 -87 81 -96 139 -3 24 -13 54 -22 67 -20 31 -9
67 18 59 21 -7 27 13 9 31 -13 13 -18 207 -8 245 14 48 37 43 86 -16 7 -8 20
-15 28 -15 13 0 14 9 9 55 -6 47 -5 55 9 55 9 0 16 5 16 11 0 6 -7 9 -15 6 -8
-4 -17 -2 -20 3 -9 14 -54 11 -93 -6z"/>
<path d="M8423 2814 c-12 -14 -33 -24 -48 -24 -36 0 -22 -17 25 -31 22 -7 47
-20 56 -31 10 -10 25 -18 35 -18 10 0 21 -4 24 -10 3 -5 -1 -10 -9 -10 -21 0
-20 -8 4 -47 23 -38 20 -37 56 -18 36 18 45 44 26 73 -8 12 -12 31 -9 42 4 17
2 18 -13 10 -28 -15 -43 16 -23 47 16 24 6 32 -15 11 -9 -9 -20 -7 -50 9 l-37
22 -22 -25z"/>
<path d="M8893 2643 c1 -16 7 -31 12 -35 6 -4 1 -8 -10 -8 -18 -1 -19 -1 -2
-11 9 -5 23 -7 30 -3 6 4 1 -4 -11 -19 l-24 -25 41 5 c31 4 41 2 41 -8 0 -8 3
-25 7 -39 6 -23 5 -24 -11 -11 -14 12 -23 12 -56 1 -22 -7 -40 -17 -40 -22 0
-5 8 -7 19 -3 10 3 24 -1 31 -10 7 -8 8 -15 2 -15 -5 0 -12 -9 -15 -20 -3 -11
-12 -23 -21 -26 -16 -6 -80 29 -138 76 -29 23 -31 23 -26 5 3 -11 9 -28 13
-37 6 -16 3 -17 -26 -12 -84 14 -83 13 -65 33 20 22 11 55 -13 45 -9 -4 -31
-9 -49 -12 -24 -3 -30 -7 -23 -16 8 -9 3 -11 -19 -8 -21 3 -30 10 -30 23 0 23
-54 35 -90 20 -17 -7 -20 -10 -7 -10 21 -1 23 -21 2 -21 -17 0 -20 -16 -5 -25
16 -10 0 -27 -21 -22 -11 3 -19 1 -19 -4 0 -5 17 -9 38 -9 l37 -1 -30 -16
c-16 -9 -33 -21 -37 -26 -4 -7 -41 -10 -97 -8 -57 2 -91 -1 -91 -7 0 -17 32
-23 121 -21 110 1 111 1 103 -13 -5 -8 -2 -9 9 -5 10 3 17 3 17 -2 0 -5 -18
-11 -41 -15 -30 -5 -39 -10 -35 -21 6 -17 -50 -31 -83 -20 -24 7 -28 -7 -6
-25 9 -7 13 -15 11 -17 -2 -3 4 -13 15 -24 19 -19 26 -49 11 -49 -4 0 -13 9
-20 20 -7 11 -19 20 -27 20 -8 0 -15 7 -15 15 0 8 -9 15 -19 15 -11 0 -33 11
-49 25 -28 23 -30 23 -25 5 3 -11 12 -20 19 -20 8 0 14 -6 14 -13 0 -7 -9 -13
-19 -13 -11 0 -17 5 -15 11 3 5 -3 0 -14 -12 -11 -13 -31 -23 -43 -23 -17 0
-20 -3 -12 -11 6 -6 24 -12 40 -12 15 0 22 -2 16 -4 -7 -3 -13 -9 -13 -15 0
-6 7 -8 15 -4 10 3 15 -1 15 -13 0 -27 -41 -34 -85 -15 -21 8 -48 13 -61 10
-25 -7 -34 8 -11 17 6 3 2 6 -10 6 -12 1 -30 4 -40 7 -17 5 -17 5 -1 -8 24
-20 11 -32 -61 -56 -77 -26 -111 -28 -111 -7 0 21 -20 19 -20 -2 -1 -14 -8 -9
-30 16 -34 40 -46 38 -25 -2 l14 -28 -35 7 c-35 6 -36 6 -28 -17 5 -13 9 -40
9 -61 0 -20 3 -39 7 -43 4 -4 4 -14 1 -23 -5 -12 -2 -14 12 -9 9 4 25 2 33 -5
13 -11 15 -10 9 5 -6 16 17 37 28 25 9 -9 -8 -48 -22 -48 -8 0 -11 -5 -8 -10
3 -6 -6 -15 -20 -20 -17 -6 -25 -16 -22 -24 4 -11 -13 -15 -80 -21 -77 -6 -87
-5 -107 14 -14 14 -29 18 -44 14 -18 -4 -24 -1 -29 17 -5 19 -11 22 -44 17
-31 -4 -42 0 -60 19 -12 13 -21 25 -18 27 2 2 16 8 32 15 15 6 27 16 27 21 0
16 -40 -1 -59 -25 -10 -12 -30 -26 -46 -30 -34 -9 -132 14 -164 38 -13 10 -30
18 -39 18 -11 0 -13 7 -7 33 4 17 8 37 8 44 3 19 -17 17 -28 -3 -25 -47 -27
-48 -45 -24 -10 14 -25 21 -39 18 l-23 -3 21 -27 c27 -33 27 -55 0 -63 -12 -4
-18 -13 -15 -20 3 -8 -3 -17 -15 -20 -10 -4 -19 -11 -19 -16 0 -12 36 -12 78
0 29 9 32 8 32 -12 0 -32 15 -51 34 -44 9 4 16 2 16 -2 0 -5 2 -15 5 -23 4
-10 -11 -13 -68 -12 -72 1 -117 15 -117 34 0 6 -4 10 -10 10 -5 0 -10 -17 -10
-37 l0 -37 -28 27 c-37 35 -47 34 -26 -2 16 -27 16 -30 1 -46 -19 -18 -23 -30
-7 -20 6 4 7 -5 4 -23 -5 -24 -2 -30 16 -35 12 -3 19 -10 16 -16 -4 -7 4 -6
25 1 25 8 33 8 40 -3 5 -8 7 -20 4 -27 -3 -7 2 -15 10 -18 8 -4 15 -12 15 -19
0 -8 8 -11 19 -8 25 6 35 -11 16 -27 -8 -7 -15 -20 -14 -29 0 -10 2 -11 6 -3
7 18 21 15 19 -5 0 -12 6 -18 19 -19 44 -2 47 -4 42 -24 -3 -11 -1 -20 4 -20
5 0 9 7 9 16 0 13 3 14 15 4 22 -18 35 -3 35 40 0 38 0 39 46 46 25 3 62 3 82
-1 20 -4 46 -7 57 -8 20 -1 55 -30 55 -46 0 -5 -12 -12 -26 -15 -17 -5 -24
-12 -20 -21 4 -11 -7 -15 -42 -17 l-47 -3 2 -42 c2 -33 -2 -45 -19 -57 -12 -8
-25 -13 -30 -10 -4 3 -8 0 -8 -5 0 -8 -7 -7 -20 1 -26 17 -38 2 -14 -18 18
-15 18 -15 -9 -9 -30 6 -49 -17 -29 -37 11 -11 4 -50 -8 -43 -5 3 -15 2 -24
-1 -14 -5 -14 -8 0 -29 19 -29 19 -36 4 -45 -8 -5 -7 -10 4 -19 12 -10 19 -8
37 13 13 14 29 26 37 26 11 0 9 -5 -6 -18 -20 -18 -28 -67 -9 -55 5 3 13 -1
18 -8 6 -10 9 -11 9 -1 0 6 4 12 10 12 5 0 7 -6 4 -14 -8 -20 17 -32 30 -15 6
8 18 15 26 17 27 6 34 21 14 28 -10 4 -34 20 -52 36 -18 15 -37 28 -42 28 -6
0 -10 8 -10 19 0 20 25 31 72 31 29 0 52 28 42 53 -3 9 4 22 18 31 21 15 21
16 3 16 -19 1 -19 1 -2 14 9 7 17 18 17 23 0 16 27 35 34 24 3 -5 1 -11 -5
-13 -16 -5 -1 -48 17 -48 8 0 14 5 14 10 0 6 4 10 9 10 13 0 20 -37 8 -49 -7
-7 -5 -18 7 -36 14 -21 20 -24 32 -14 8 6 17 9 21 5 3 -3 1 -6 -4 -6 -8 0 -8
-9 0 -30 10 -26 13 -28 19 -13 6 12 6 9 3 -10 -4 -21 -2 -27 12 -28 12 0 14
-2 5 -6 -14 -5 -28 0 -113 43 -26 13 -49 24 -52 24 -3 0 -5 -16 -4 -35 1 -19
5 -35 10 -35 4 0 7 -8 7 -18 0 -11 8 -18 20 -19 17 -2 20 2 15 20 -5 18 -1 17
24 -10 17 -18 38 -33 47 -33 27 0 54 -20 54 -41 0 -11 5 -17 10 -14 6 3 10 -4
10 -16 0 -17 -4 -20 -20 -15 -11 3 -29 9 -39 12 -14 4 -23 -1 -31 -18 -7 -12
-24 -35 -38 -50 l-26 -28 36 0 c20 0 41 -6 48 -14 16 -20 90 -17 91 4 1 8 4 4
9 -10 l7 -25 7 27 c6 18 2 35 -11 54 -17 27 -17 28 0 21 10 -4 23 -7 28 -7 6
0 8 -4 5 -9 -13 -20 30 -34 134 -44 22 -2 24 1 25 43 0 26 -6 53 -14 63 -11
14 -12 22 -4 35 8 13 6 23 -9 45 -19 26 -21 27 -34 10 -13 -17 -15 -17 -29 1
-18 23 -19 36 -4 36 5 0 7 5 4 10 -3 6 0 10 8 10 8 0 20 14 27 31 8 19 16 26
20 19 6 -9 9 -9 15 0 5 8 1 18 -10 27 -18 12 -17 13 8 13 19 0 27 -5 27 -17 0
-13 3 -14 12 -5 15 15 58 16 58 1 0 -5 -4 -8 -9 -4 -5 3 -12 1 -15 -4 -8 -13
4 -42 15 -35 5 3 9 0 9 -5 0 -6 4 -11 9 -11 16 0 20 43 9 87 -6 24 -7 47 -3
51 3 4 27 6 51 5 49 -2 49 -1 0 54 -11 13 -15 23 -10 23 5 0 10 14 10 31 1 29
-1 31 -28 25 -30 -6 -68 17 -68 41 0 7 -4 13 -10 13 -5 0 -13 1 -17 3 -3 1 -7
-8 -8 -20 -2 -32 -10 -37 -30 -17 -16 16 -18 16 -27 1 -11 -20 -61 -19 -53 1
3 8 5 15 5 18 0 2 7 1 15 -2 25 -10 17 12 -9 26 -28 14 -45 55 -19 46 13 -5
14 -4 3 9 -14 17 -30 11 -30 -11 0 -9 -14 -30 -32 -47 l-31 -32 39 -11 c39
-11 39 -11 15 -24 -23 -12 -23 -13 -5 -23 34 -18 33 -30 -1 -56 -19 -14 -34
-32 -35 -38 0 -29 -25 -11 -27 20 -3 59 -15 96 -41 124 -15 15 -25 33 -23 38
2 6 5 22 6 38 1 20 -3 27 -16 27 -10 0 -21 4 -24 10 -3 6 1 7 10 4 27 -11 46
15 39 52 -8 45 2 81 24 88 15 5 103 -24 120 -39 2 -2 -17 -25 -42 -52 -46 -48
-54 -63 -36 -63 6 0 10 3 10 8 0 4 19 28 43 54 41 45 44 47 108 51 41 2 77 10
94 21 15 10 33 15 41 12 8 -3 14 1 14 10 0 8 11 25 25 38 22 21 23 25 10 36
-8 7 -15 23 -15 36 0 12 -4 26 -10 29 -17 10 -11 25 10 25 11 0 20 5 20 10 0
6 -6 10 -14 10 -8 0 -18 -4 -21 -10 -10 -17 -25 -11 -25 9 0 35 53 75 133 101
77 23 116 22 61 -2 -35 -16 -73 -48 -55 -48 6 0 26 7 43 16 16 9 27 11 24 5
-4 -6 0 -11 9 -11 33 0 7 -24 -73 -69 -45 -25 -82 -50 -82 -54 0 -23 35 -13
96 26 38 25 101 61 139 81 72 37 101 40 148 12 15 -8 21 -8 24 2 5 12 43 18
43 6 0 -7 -22 -27 -45 -40 -23 -13 -29 -33 -17 -52 10 -16 42 -5 42 14 0 8 4
14 9 14 5 0 11 10 13 23 2 12 8 22 13 22 6 0 21 8 35 17 19 14 22 20 12 30
-10 10 -15 10 -22 -2 -9 -13 -11 -13 -19 -1 -5 8 -7 20 -4 28 3 7 0 13 -7 13
-6 0 -8 -4 -5 -10 3 -5 -1 -10 -10 -10 -21 0 -16 29 8 44 13 8 20 8 25 -1 10
-16 103 -19 128 -5 17 10 17 11 -8 12 -16 0 -28 6 -28 13 0 13 53 37 83 37 10
0 26 5 37 12 22 14 35 6 27 -17 -4 -8 -17 -15 -31 -15 -32 0 -44 -20 -17 -27
l21 -5 -20 -28 c-11 -16 -20 -37 -20 -47 0 -23 -67 -129 -99 -157 -12 -11 -35
-19 -51 -19 -17 0 -30 -4 -30 -9 0 -5 -15 -6 -34 -2 -46 8 -67 -5 -35 -22 28
-14 34 -51 13 -75 -13 -14 -13 -17 2 -23 10 -4 22 1 29 11 15 20 16 19 31 -22
10 -28 9 -30 -11 -30 -11 1 -28 5 -36 9 -7 4 0 -4 16 -19 28 -24 29 -26 11
-37 -18 -10 -16 -12 18 -33 22 -13 46 -20 61 -17 17 3 25 0 26 -9 4 -51 20
-79 45 -79 12 0 26 -5 29 -10 4 -7 13 -6 26 1 16 8 26 7 44 -5 37 -25 54 -18
22 8 l-29 23 26 26 c14 14 26 30 26 34 0 4 22 21 50 36 27 15 52 32 55 37 7
11 -21 2 -50 -16 -34 -22 -107 -36 -170 -35 -81 2 -97 8 -93 34 3 24 36 28 91
13 21 -6 27 -5 27 7 0 17 55 42 86 39 12 -1 24 4 27 11 3 8 34 22 69 31 51 14
69 15 93 6 l30 -12 -21 -16 c-12 -9 -30 -23 -40 -30 -16 -11 -16 -11 5 -1 24
11 93 8 123 -5 13 -6 20 -2 27 16 5 14 23 30 39 37 40 17 61 5 198 -112 116
-99 145 -130 166 -178 7 -16 16 -29 20 -29 5 0 8 -7 8 -16 0 -9 9 -28 21 -42
48 -64 68 -101 56 -109 -17 -10 -47 -11 -47 -1 0 16 -34 8 -58 -14 -19 -19
-34 -23 -80 -21 -76 2 -141 9 -173 17 -24 7 -26 10 -19 42 9 41 -6 56 -20 20
-11 -29 -31 -33 -50 -11 -14 16 -50 21 -50 6 0 -6 4 -12 9 -15 14 -9 7 -63
-12 -83 -13 -16 -16 -30 -11 -66 4 -27 12 -47 19 -47 7 0 18 -7 25 -15 10 -13
9 -15 -9 -15 -18 0 -20 -4 -15 -27 4 -15 14 -34 21 -42 12 -11 12 -15 1 -22
-11 -7 -11 -11 1 -18 8 -5 10 -14 6 -21 -4 -7 -2 -16 5 -20 14 -9 50 -2 50 10
0 4 9 10 20 13 11 3 20 13 20 22 0 17 42 78 75 108 27 24 120 67 147 67 12 0
30 -7 39 -16 17 -15 22 -15 51 -1 18 8 56 18 85 21 l52 7 75 -77 c42 -42 78
-85 81 -95 3 -10 23 -28 43 -40 40 -23 96 -92 119 -148 8 -19 22 -41 32 -48
15 -12 14 -15 -8 -33 -15 -13 -31 -18 -43 -14 -10 3 -25 0 -33 -6 -8 -7 -21
-10 -28 -7 -8 3 -33 -10 -56 -29 -24 -18 -58 -36 -77 -40 -40 -7 -53 -21 -28
-31 16 -6 16 -7 -2 -14 -10 -3 -25 -2 -32 4 -7 5 -42 9 -77 8 l-65 -2 0 35 c0
50 -27 58 -43 13 -4 -9 -16 -21 -28 -26 -33 -12 -38 -85 -8 -112 12 -10 26
-19 31 -19 16 0 37 -27 43 -56 14 -62 16 -64 46 -64 27 0 29 3 29 35 0 46 25
47 65 3 l30 -33 3 38 c2 22 8 37 16 37 8 0 19 7 26 15 7 9 20 15 29 14 34 -3
34 2 1 36 -28 29 -31 37 -20 49 7 9 17 13 23 9 6 -4 8 0 4 9 -6 18 18 57 29
46 4 -4 1 -14 -6 -23 -11 -13 -9 -15 14 -15 15 0 43 -7 63 -15 44 -19 53 -19
53 -1 0 8 8 24 18 37 18 21 20 21 42 6 14 -10 33 -14 50 -11 17 4 31 0 39 -10
8 -9 18 -16 24 -16 5 0 16 -8 23 -17 11 -15 13 -3 14 81 0 55 -3 96 -7 93 -3
-4 -17 0 -31 9 -32 21 -37 13 -12 -18 l20 -26 -21 -5 c-14 -4 -30 5 -54 29
-19 19 -34 35 -34 37 0 1 -4 15 -10 30 -14 37 -14 54 2 60 8 3 3 12 -14 28
-47 43 -65 101 -34 113 8 3 15 12 15 21 0 9 9 15 24 15 13 0 26 6 29 14 6 14
31 14 87 -3 19 -6 36 -11 38 -11 1 0 2 61 1 135 -1 74 -5 135 -9 135 -5 0 -23
-17 -42 -38 -38 -44 -59 -55 -94 -46 -28 7 -34 51 -9 61 9 3 22 18 31 34 8 16
19 29 25 29 12 0 39 25 39 37 0 4 -14 16 -30 25 -23 13 -30 24 -30 48 0 32
-14 38 -43 16 -13 -10 -29 -11 -64 -5 -25 5 -48 8 -49 6 -2 -1 3 -14 11 -27 8
-14 17 -31 21 -38 4 -8 -5 -26 -21 -42 -34 -36 -30 -44 14 -29 52 18 57 4 37
-95 -16 -74 -21 -85 -42 -90 -27 -7 -31 -30 -12 -71 10 -22 9 -28 -3 -36 -28
-18 -44 -8 -139 88 -95 98 -113 124 -215 318 -26 50 -51 95 -56 101 -4 5 -10
26 -13 46 -2 20 -9 45 -15 56 -14 26 -14 52 -1 52 5 0 9 -6 7 -12 -3 -17 41
-22 59 -8 7 7 14 19 14 27 0 13 -3 13 -16 2 -21 -17 -36 5 -24 36 6 16 4 27
-6 37 -9 8 -16 21 -17 29 -2 8 -6 19 -10 25 -4 7 0 14 8 18 8 3 12 12 9 21 -5
12 -9 13 -21 4 -21 -18 -35 2 -43 61 -6 43 -4 50 11 50 11 0 22 -13 29 -36 7
-19 18 -38 26 -41 13 -5 39 14 41 30 4 25 12 29 18 10 9 -29 22 -29 31 -1 3
11 23 36 43 55 l36 33 -40 0 c-22 1 -51 7 -65 15 -14 8 -33 14 -44 15 -15 0
-16 -3 -6 -15 7 -9 9 -22 4 -32 -11 -26 -11 -37 -1 -44 5 -4 4 -10 -2 -13 -6
-4 -11 -2 -11 3 0 6 -5 11 -11 11 -6 0 -22 9 -37 20 -17 14 -29 17 -36 10 -21
-21 -43 -11 -49 24 -10 63 11 98 33 56 9 -17 14 -18 30 -8 11 7 16 16 10 23
-4 5 -10 21 -12 35 -2 20 -9 26 -35 28 -22 2 -39 12 -53 33 -12 16 -28 29 -36
29 -8 0 -14 5 -14 10 0 6 5 10 10 10 6 0 8 10 5 23 -6 23 13 78 38 110 15 18
33 24 22 7 -3 -5 0 -10 7 -10 8 0 9 -3 3 -8 -5 -4 -11 -23 -12 -42 -1 -19 1
-29 3 -22 3 6 15 12 26 12 17 0 19 4 13 30 -5 22 -3 32 9 36 9 3 16 17 16 30
0 23 -14 32 -24 16 -12 -19 -86 -4 -127 27 -24 17 -47 31 -51 31 -18 0 -6 21
16 30 39 14 44 33 7 25 -28 -6 -31 -4 -31 19 0 13 5 28 11 31 7 5 5 13 -6 25
-26 28 -8 48 58 64 34 8 52 15 39 15 -13 1 -43 -4 -67 -10 -58 -15 -80 -7 -65
22 18 32 1 37 -24 6 l-22 -27 -29 30 c-36 37 -44 38 -42 3z m201 -318 c3 -9 0
-15 -8 -15 -8 0 -16 -5 -18 -11 -2 -5 -18 -11 -35 -11 -38 -1 -35 -15 3 -15
43 0 50 -19 15 -37 -17 -9 -31 -21 -31 -26 0 -6 -7 -10 -16 -10 -12 0 -15 -6
-10 -24 5 -22 2 -25 -37 -32 -23 -4 -49 -7 -57 -5 -10 1 -8 -4 6 -16 12 -10
25 -28 29 -40 9 -32 29 -29 21 2 -9 37 12 31 31 -10 14 -29 22 -35 47 -35 l31
1 -24 20 c-15 12 -21 23 -14 27 5 4 12 13 14 21 6 18 79 23 79 5 0 -7 -5 -16
-11 -19 -6 -4 -8 -14 -5 -22 4 -9 -8 -29 -29 -50 -19 -19 -35 -38 -35 -42 0
-4 -10 -17 -23 -29 -28 -26 -46 -14 -48 33 -1 23 -3 25 -6 7 -2 -12 -18 -29
-34 -37 -37 -20 -37 -28 0 -20 17 3 32 2 36 -4 3 -6 -1 -11 -9 -11 -9 0 -16
-4 -16 -10 0 -5 -8 -10 -17 -10 -15 0 -16 -2 -3 -9 8 -6 27 -7 44 -4 20 4 27
3 22 -5 -10 -16 25 -47 57 -49 14 -2 36 -12 47 -23 17 -17 18 -23 8 -40 -10
-16 -10 -22 1 -32 11 -10 14 -10 18 0 3 6 13 12 24 12 20 0 26 16 9 22 -5 2 2
8 16 15 21 10 26 9 30 -5 3 -9 10 -25 15 -35 15 -28 2 -53 -34 -65 l-32 -10
38 -1 c30 -1 40 -6 44 -21 4 -14 9 -18 17 -11 9 8 12 0 12 -31 -1 -24 -6 -43
-14 -46 -6 -2 -9 -8 -6 -14 16 -25 -38 16 -119 93 -87 81 -121 133 -111 167 5
13 4 14 -4 3 -7 -9 -12 -10 -16 -2 -4 6 -2 11 3 11 6 0 11 5 11 10 0 6 -5 10
-11 10 -7 0 -18 8 -25 17 -21 29 -29 5 -10 -28 20 -34 21 -34 -16 -43 -20 -4
-34 0 -56 19 -34 28 -57 32 -66 10 -3 -8 -14 -15 -24 -15 -10 0 -27 -8 -36
-19 -25 -27 -140 -37 -184 -16 -21 11 -32 24 -32 38 0 17 19 131 29 172 0 3 1
10 1 15 0 13 37 50 50 50 6 0 10 -4 10 -10 0 -5 -7 -10 -15 -10 -8 0 -15 -9
-15 -20 0 -11 7 -20 15 -20 8 0 15 7 15 15 0 10 9 15 28 14 l27 -1 -25 -8
c-24 -8 -24 -8 7 -9 17 -1 34 -5 37 -10 7 -11 76 5 91 21 7 7 -6 9 -42 5 -56
-6 -76 5 -44 25 25 15 13 41 -30 67 -26 16 -28 20 -14 31 8 7 15 19 15 27 0
14 68 49 77 40 2 -3 5 -14 6 -26 1 -20 6 -22 52 -19 48 3 50 4 49 32 -1 27 0
28 12 12 7 -10 26 -19 43 -20 27 -2 34 3 50 35 17 32 18 39 5 49 -21 18 -18
23 28 53 47 30 83 35 92 12z m134 -1197 c5 -42 -34 -62 -122 -62 -67 -1 -71 0
-74 22 -2 14 5 33 20 47 20 21 31 23 98 22 73 -2 75 -3 78 -29z"/>
<path d="M9452 2432 c-7 -5 -10 -15 -7 -23 4 -12 -2 -14 -31 -11 -33 4 -36 3
-29 -18 5 -15 1 -25 -11 -35 -11 -7 -22 -11 -27 -8 -9 6 -37 -15 -37 -29 0 -5
15 -6 35 -2 24 4 39 2 49 -8 12 -13 9 -20 -25 -53 -22 -21 -38 -43 -36 -48 7
-23 23 -15 42 20 11 21 30 43 42 49 13 6 20 14 15 19 -4 5 -2 5 5 1 7 -4 9
-14 6 -22 -5 -14 -3 -14 18 -2 56 32 67 86 22 108 -16 7 -23 15 -16 17 7 2 21
0 31 -6 11 -6 22 -7 26 -4 12 13 6 41 -11 46 -10 2 -25 7 -33 11 -8 3 -21 2
-28 -2z"/>
<path d="M9706 2396 c-2 -10 -11 -16 -18 -13 -18 6 -50 -12 -43 -24 4 -5 -2
-9 -12 -9 -15 0 -14 -2 5 -16 12 -8 22 -22 22 -30 0 -8 5 -14 10 -14 6 0 10
-6 10 -14 0 -26 110 -50 141 -30 5 3 4 14 -1 25 -9 16 -7 19 10 19 11 0 20 4
20 9 0 5 -10 8 -22 7 -19 -2 -23 2 -23 24 0 17 5 26 11 23 7 -2 14 0 18 5 3 5
-10 15 -29 22 -19 8 -35 19 -35 25 0 21 -58 12 -64 -9z"/>
<path d="M9596 1995 c6 -16 -13 -75 -25 -75 -11 0 -61 -47 -61 -58 0 -6 -16
-28 -35 -49 -19 -21 -35 -41 -35 -44 0 -4 14 -9 31 -11 25 -4 32 -1 40 19 5
14 6 35 3 49 -6 22 -4 23 17 15 13 -5 23 -14 22 -20 -4 -15 14 -14 19 1 2 6
10 8 16 4 20 -12 13 -24 -18 -31 -29 -6 -47 -21 -37 -31 3 -3 14 -1 25 5 26
14 46 6 62 -25 16 -28 28 -30 46 -6 17 22 17 32 0 32 -20 0 -31 21 -16 30 9 6
9 13 1 28 -14 27 -14 35 1 30 6 -2 19 3 28 11 9 9 25 21 36 28 16 11 13 12
-25 10 -44 -2 -45 -2 -55 38 -6 22 -15 46 -19 53 -12 17 -28 15 -21 -3z"/>
<path d="M4650 1022 c-25 -8 -50 -34 -50 -54 0 -10 -6 -18 -14 -18 -9 0 -13
-18 -15 -62 -1 -35 -4 -71 -7 -81 -7 -21 -54 -47 -87 -47 -13 0 -34 -11 -47
-25 -13 -14 -32 -25 -42 -25 -10 0 -18 -7 -18 -15 0 -8 6 -15 13 -15 7 0 17
-13 23 -28 10 -25 15 -28 43 -24 17 2 31 9 31 14 0 5 5 6 10 3 6 -3 10 -15 10
-26 0 -11 7 -19 16 -19 13 0 15 7 10 32 -11 54 -11 63 -4 63 4 0 14 10 23 21
26 37 99 74 148 74 43 0 107 16 107 27 0 3 -7 11 -15 17 -13 9 -10 11 14 13
29 2 29 1 24 -35 -6 -35 -14 -47 -38 -55 -6 -2 -4 -14 4 -30 11 -21 12 -35 4
-62 -12 -39 -2 -55 23 -34 13 10 20 10 37 0 19 -12 23 -11 44 15 13 16 23 36
23 44 0 9 36 54 80 99 97 101 104 129 39 149 -27 9 -45 9 -53 3 -7 -6 -31 -13
-54 -17 -38 -6 -42 -4 -51 18 -11 30 -44 53 -88 61 -22 4 -33 3 -33 -5 0 -7
-6 -3 -14 7 -13 19 -63 27 -96 17z"/>
<path d="M3969 950 c-9 -24 -17 -30 -40 -30 -32 0 -40 -23 -13 -38 14 -8 14
-10 0 -21 -18 -15 -22 -51 -6 -51 6 0 10 -6 8 -13 -4 -19 55 -107 72 -107 22
1 53 27 45 39 -3 6 -1 11 4 11 6 0 11 -6 11 -14 0 -7 7 -19 15 -26 14 -11 15
-7 12 36 -3 47 -4 49 -45 64 -23 9 -49 26 -58 38 -14 20 -14 24 3 45 10 13 23
22 28 21 6 -2 18 3 28 11 18 13 18 15 2 39 -24 36 -53 34 -66 -4z"/>
<path d="M5706 778 c-3 -13 -6 -33 -6 -45 0 -12 -8 -24 -19 -28 -26 -8 -35
-34 -15 -42 9 -3 38 -1 66 6 27 6 67 8 89 5 33 -6 39 -4 39 11 0 10 -7 23 -15
29 -16 11 -21 38 -14 65 2 7 -1 15 -7 18 -6 2 -14 -6 -17 -19 l-6 -22 -24 22
c-31 29 -63 29 -71 0z"/>
<path d="M4551 592 c-2 -24 20 -54 35 -48 8 3 14 1 14 -4 0 -6 -11 -10 -24
-10 -28 0 -51 -24 -42 -45 7 -19 52 -20 60 0 9 25 65 18 100 -13 30 -26 31
-30 18 -50 -8 -12 -20 -22 -26 -22 -13 0 -66 -54 -66 -68 0 -6 18 -13 41 -17
50 -9 74 10 90 69 6 23 15 46 21 53 6 8 2 19 -13 34 -13 13 -23 34 -23 48 -1
20 -6 26 -24 26 -12 0 -27 7 -32 15 -8 12 -13 13 -29 3 -15 -10 -28 -10 -48
-2 -15 6 -30 10 -33 9 -2 -1 -7 7 -11 17 -4 10 -8 12 -8 5z"/>
<path d="M6499 386 c-20 -6 -43 -17 -52 -24 -9 -8 -27 -12 -40 -10 -13 1 -30
-2 -38 -8 -18 -13 -118 -38 -125 -31 -10 10 -45 -34 -42 -51 4 -23 64 -28 86
-8 10 8 31 13 52 11 19 -2 74 4 123 13 82 15 89 15 117 -1 37 -22 88 -19 106
7 22 32 17 55 -13 61 -16 3 -49 17 -74 30 -52 28 -50 27 -100 11z"/>
<path d="M4295 308 c-16 -6 -36 -12 -42 -14 -18 -5 -5 -31 18 -37 13 -4 19
-14 19 -36 0 -35 47 -91 56 -67 8 21 36 29 47 14 6 -9 7 -6 4 9 -3 12 1 27 9
34 8 6 14 15 14 18 0 16 -43 52 -56 47 -10 -4 -14 2 -14 19 0 27 -8 29 -55 13z"/>
<path d="M9667 313 c-10 -3 -17 -12 -15 -22 4 -24 -22 -71 -39 -71 -11 0 -11
-6 1 -33 18 -43 86 -114 70 -73 -3 9 2 13 18 12 13 0 32 9 43 22 17 19 33 24
98 29 89 7 95 20 7 15 -76 -5 -100 8 -100 53 0 24 -5 35 -15 35 -8 0 -19 9
-25 20 -11 21 -12 21 -43 13z"/>
<path d="M3650 189 c0 -12 37 -49 43 -43 7 7 57 -15 57 -25 0 -5 -9 -12 -19
-16 -13 -4 -20 -18 -23 -43 -8 -61 -7 -62 113 -62 112 0 145 12 63 24 -43 6
-83 30 -70 43 3 4 6 3 6 -2 0 -4 9 0 19 9 11 10 37 20 59 23 40 5 40 5 21 26
-10 11 -19 26 -19 33 0 15 -53 37 -77 32 -12 -3 -17 -11 -16 -26 2 -17 -2 -22
-20 -22 -20 0 -64 23 -77 40 -8 11 -60 18 -60 9z"/>
</g>
</svg>
